<svg viewBox="0 0 32 32" xmlns="http://www.w3.org/2000/svg" xmlns:xlink="http://www.w3.org/1999/xlink" width="32.000000" height="32.000000" fill="none" customFrame="#000000">
	<rect id="正念冥想2" width="32.000000" height="32.000000" x="0.000000" y="0.000000" />
	<path id="合并" d="M21.1193 15.9257C20.7658 16.0869 20.4215 16.2639 20.0875 16.4566C18.5446 17.3475 17.1891 18.5908 16.0202 20.1865C14.8517 18.5908 13.4962 17.3475 11.9533 16.4566C11.5646 16.2322 11.1623 16.0294 10.7472 15.8478C10.735 15.6292 10.7291 15.4091 10.7291 15.1874C10.7291 9.72981 14.4341 5.14394 15.593 3.84295C15.7776 3.63569 16.0928 3.63568 16.2774 3.84294C17.4365 5.1439 21.1417 9.72979 21.1417 15.1874C21.1417 15.4354 21.1339 15.6816 21.1193 15.9257ZM9.77195 10.5641C7.833 9.36036 5.9593 8.71802 5.12095 8.46656C4.86571 8.39001 4.60556 8.5402 4.54423 8.79952C4.31869 9.75325 3.86848 12.0762 4.08199 14.7085C5.87899 14.6476 7.52792 14.8248 9.02876 15.24C9.02876 13.7252 9.27642 12.1312 9.77195 10.5641ZM22.8407 15.2884C24.4005 14.8346 26.1226 14.6418 28.007 14.71C28.2205 12.0774 27.7703 9.75407 27.5448 8.80024C27.4834 8.54092 27.2233 8.39071 26.9681 8.46727C26.1033 8.72664 24.1371 9.40184 22.1341 10.68C22.6054 12.2071 22.8411 13.7093 22.8411 15.1867C22.8411 15.2205 22.841 15.2544 22.8407 15.2884ZM16.0204 23.4239C15.0333 21.5139 13.463 19.2907 11.1032 17.9283C7.0769 15.6037 2.02982 16.5224 0.499015 16.8814C0.239587 16.9422 0.0894169 17.2023 0.166441 17.4574C0.620937 18.9626 2.34891 23.7928 6.37517 26.1174C9.77173 28.0784 13.8948 27.7313 16.0204 27.3593C18.146 27.7313 22.2691 28.0784 25.6657 26.1174C29.6919 23.7928 31.4199 18.9626 31.8744 17.4574C31.9514 17.2023 31.8012 16.9422 31.5418 16.8814C30.011 16.5224 24.9639 15.6037 20.9377 17.9283C18.5779 19.2907 17.0075 21.5139 16.0204 23.4239Z" fill="rgb(21,195,204)" fill-rule="evenodd" />
</svg>
