<svg viewBox="0 0 32 32" xmlns="http://www.w3.org/2000/svg" xmlns:xlink="http://www.w3.org/1999/xlink" width="32.000000" height="32.000000" fill="none">
	<rect id="体重测量" width="32.000000" height="32.000000" x="0.000000" y="0.000000" />
	<path id="合并" d="M24.484 3.27441C26.8266 3.27441 28.7256 5.17347 28.7256 7.51608L28.7256 24.4828C28.7256 26.8254 26.8266 28.7244 24.484 28.7244L7.5173 28.7244C5.17469 28.7244 3.27563 26.8254 3.27563 24.4828L3.27563 7.51608C3.27563 5.17347 5.17469 3.27441 7.5173 3.27441L24.484 3.27441ZM19.4768 15.7033C19.2976 15.8776 19.0014 15.9186 18.7686 15.8018C18.7529 15.7939 18.2613 15.5547 17.486 15.3696L16.9485 11.5069C16.8815 11.0252 16.4696 10.6667 15.9833 10.6667C15.4969 10.6667 15.0851 11.0252 15.018 11.5069L14.4956 15.2619C13.9105 15.3665 13.3471 15.5483 12.8103 15.8061C12.724 15.8475 12.6287 15.8678 12.5351 15.8678C12.3773 15.8678 12.221 15.8108 12.1102 15.7033L7.57952 12.0828C7.40072 11.9097 7.38323 11.6514 7.53754 11.4611C7.67164 11.2962 10.8764 7.43216 15.8428 7.43216C18.7568 7.43216 21.6305 8.77174 24.3859 11.4142C24.5842 11.6037 24.5845 11.8929 24.3882 12.0828L19.4768 15.7033Z" fill="rgb(16,188,135)" fill-rule="evenodd" />
</svg>
