<svg viewBox="0 0 32 32" xmlns="http://www.w3.org/2000/svg" xmlns:xlink="http://www.w3.org/1999/xlink" width="32.000000" height="32.000000" fill="none">
	<rect id="规律就寝" width="32.000000" height="32.000000" x="0.000000" y="0.000000" />
	<path id="合并" d="M8.79342 2.15332L4.60641 2.15332C4.09401 2.15332 3.69141 2.55592 3.69141 3.06832C3.69141 3.58072 4.09401 3.98332 4.60641 3.98332L6.5845 3.98332L3.95938 6.60859C3.78073 6.78726 3.6914 7.00293 3.69141 7.2556C3.69141 7.50827 3.78075 7.72394 3.95942 7.9026C4.04522 7.98839 4.14417 8.0545 4.25626 8.10093C4.36836 8.14736 4.48507 8.17058 4.60641 8.17058L8.79342 8.17058C9.30582 8.17058 9.70842 7.76798 9.70842 7.25558C9.70842 6.74318 9.30582 6.34058 8.79342 6.34058L6.81532 6.34058L9.44044 3.7153C9.52623 3.62951 9.59234 3.53056 9.63877 3.41846C9.6852 3.30637 9.70842 3.18965 9.70842 3.06832C9.70842 2.81565 9.61909 2.59998 9.44042 2.42132C9.26176 2.24265 9.04609 2.15332 8.79342 2.15332ZM20.4327 9.41487C20.8279 10.9488 20.89 12.4911 20.6633 13.9648C20.4806 14.5284 18.4613 15.0146 17.0983 15.6183C16.1369 16.0442 15.6022 16.5906 15.5838 16.9736C15.556 17.5355 16.3065 17.9846 16.9986 18.3986C17.7303 18.8368 18.3316 19.3193 17.9427 19.7712C16.4909 21.4178 14.5497 22.6618 12.2658 23.2502C10.4881 23.7082 8.6973 23.7182 7.01618 23.3501C6.96846 23.3515 6.92279 23.356 6.87682 23.3642C6.55535 23.4464 6.32266 23.6866 6.27041 24.0052C6.22489 24.2878 6.45777 24.5985 6.59239 24.7766C9.74078 29.0362 15.2201 31.0144 20.3104 29.7029C27.2639 27.9115 31.4453 20.7283 29.6319 13.6897C28.331 8.64014 24.2016 4.81632 19.1106 3.94818C19.0009 3.92913 18.8534 3.94481 18.7898 3.96119C18.652 3.99547 18.5647 4.03474 18.4847 4.09249C18.1762 4.31616 18.0774 4.72679 18.2322 5.06453C19.2432 6.30007 20.0087 7.76882 20.4327 9.41487ZM16.1933 5.64576L12.3847 5.64576C11.9731 5.64576 11.6497 5.96916 11.6497 6.38076C11.6497 6.79236 11.9731 7.11576 12.3847 7.11576L14.4189 7.11576L12.0769 9.45785C12.0051 9.52961 11.9513 9.6088 11.9155 9.69542C11.8796 9.78204 11.8616 9.87609 11.8616 9.97757C11.8616 10.0791 11.8796 10.1731 11.9155 10.2597C11.9513 10.3463 12.0052 10.4255 12.0769 10.4973C12.1114 10.5317 12.1485 10.5623 12.1882 10.5888C12.228 10.6154 12.2703 10.638 12.3154 10.6566C12.3604 10.6753 12.4063 10.6892 12.4532 10.6986C12.5001 10.7079 12.5479 10.7126 12.5966 10.7126L16.0371 10.7126C16.4487 10.7126 16.7721 10.3892 16.7721 9.97756C16.7721 9.56596 16.4487 9.24256 16.0371 9.24256L14.371 9.24256L16.7131 6.90047C16.7475 6.86601 16.778 6.82891 16.8046 6.78917C16.8311 6.74943 16.8537 6.70705 16.8724 6.66203C16.891 6.617 16.905 6.57105 16.9143 6.52417C16.9237 6.47729 16.9283 6.42949 16.9283 6.38076C16.9283 6.27928 16.9104 6.18523 16.8745 6.09861C16.8386 6.01198 16.7848 5.93279 16.713 5.86104C16.6413 5.78928 16.5621 5.73546 16.4755 5.69958C16.3889 5.6637 16.2948 5.64576 16.1933 5.64576ZM25.426 15.7015C25.7857 15.6088 26.1472 15.4355 26.5093 15.1817C26.8011 14.9777 26.8719 14.5711 26.6678 14.2744C26.4637 13.9777 26.0649 13.9031 25.7706 14.1077C25.3388 14.4111 24.9404 14.5266 24.584 14.4539C24.0476 14.3433 23.7133 13.8354 23.7018 13.8167C23.513 13.5121 23.1155 13.4169 22.8174 13.6043C22.5148 13.7921 22.4215 14.1938 22.6089 14.5008C22.6709 14.6022 23.2442 15.4983 24.3152 15.7281C24.6813 15.8071 25.0519 15.7979 25.426 15.7015Z" opacity="0" fill="rgb(137,129,247)" fill-rule="evenodd" />
	<path id="path" d="M10.9217 12.4568L14.2352 9.32608C14.487 9.07432 14.5641 8.74134 14.4667 8.32716C14.4261 8.15661 14.3286 8.02261 14.1743 7.92516C14.02 7.8277 13.8454 7.77897 13.6505 7.77897L8.55844 7.77897C8.30668 7.77897 8.09146 7.86425 7.9128 8.03479C7.74225 8.21346 7.65697 8.42867 7.65697 8.68043C7.65697 8.93219 7.74225 9.14741 7.9128 9.32608C8.09146 9.49662 8.30668 9.5819 8.55844 9.5819L11.3116 9.5819L7.99807 12.7126C7.82752 12.8913 7.71382 13.0497 7.65697 13.1877C7.592 13.3177 7.592 13.5126 7.65697 13.7725C7.71382 13.9999 7.82346 14.1461 7.98589 14.211C8.15643 14.2679 8.35541 14.2963 8.5828 14.2963L13.6505 14.2963C13.9022 14.2963 14.1134 14.2029 14.2839 14.0161C14.4626 13.8293 14.5519 13.6101 14.5519 13.3583C14.5519 13.1065 14.4707 12.8913 14.3083 12.7126C14.1378 12.5421 13.9266 12.4568 13.6748 12.4568L10.9217 12.4568ZM5.19623 5.92732L7.12097 4.08785C7.20218 4.01476 7.26309 3.91324 7.3037 3.7833C7.34431 3.65336 7.33212 3.52342 7.26715 3.39348C7.2103 3.25542 7.13315 3.16609 7.0357 3.12548C6.93824 3.08487 6.84079 3.06457 6.74333 3.06457L3.61258 3.06457C3.44203 3.04833 3.29585 3.09705 3.17403 3.21075C3.06033 3.33257 3.00348 3.47875 3.00348 3.6493C3.00348 3.82797 3.06033 3.97415 3.17403 4.08785C3.29585 4.20967 3.44203 4.27058 3.61258 4.27058L5.17186 4.27058L3.23494 6.11005C3.12124 6.22375 3.04815 6.34963 3.01566 6.48769C2.9913 6.62575 2.99536 6.74351 3.02784 6.84096C3.1253 7.03587 3.33239 7.13333 3.64912 7.13333L6.74333 7.13333C6.922 7.13333 7.06818 7.06836 7.18188 6.93842C7.3037 6.8166 7.36461 6.67448 7.36461 6.51205C7.36461 6.34151 7.3037 6.20344 7.18188 6.09787C7.06818 5.98417 6.922 5.92732 6.74333 5.92732L5.19623 5.92732ZM21.9829 3.79548C21.7636 3.69803 21.5484 3.67366 21.3373 3.72239C21.118 3.77112 20.9434 3.88888 20.8135 4.07567C20.6754 4.26246 20.6145 4.47361 20.6307 4.70913C20.6876 5.35883 20.7282 6.25217 20.7525 7.2917C20.7688 8.33122 20.6754 9.51693 20.4724 10.8488C20.2693 12.1726 19.8633 13.273 19.2542 14.1501C18.4989 14.207 17.7314 14.2638 16.9518 14.3207C16.1884 14.3613 15.628 14.41 15.2707 14.4668C14.9052 14.5237 14.6088 14.6374 14.3814 14.8079C14.1459 14.9704 13.9875 15.2262 13.9063 15.5754C13.8088 16.1033 13.8129 16.5865 13.9185 17.0251C14.0322 17.4636 14.223 17.9874 14.491 18.5965C14.5722 18.7508 14.6413 18.9051 14.6981 19.0594C13.9022 19.4493 12.9927 19.7863 11.9694 20.0705C10.9461 20.3548 9.79287 20.501 8.50971 20.5091C7.23467 20.5172 5.97587 20.2776 4.73331 19.7903C4.37598 19.6766 4.09985 19.7051 3.90494 19.8756C3.71003 20.0543 3.61258 20.3345 3.61258 20.7162C3.61258 21.0898 3.72221 21.4918 3.94149 21.9222C5.1272 24.1068 6.77176 25.8245 8.87517 27.0751C10.9867 28.3177 13.3865 28.939 16.0747 28.939C18.3892 28.8821 20.5373 28.2446 22.5189 27.0264C24.5005 25.8082 26.076 24.1961 27.2455 22.1902C28.415 20.1842 28.9997 18.0199 28.9997 15.6972C29.0159 13.204 28.3947 10.8894 27.1359 8.75352C25.8771 6.61763 24.1594 4.96495 21.9829 3.79548ZM25.0528 17.9143C24.2894 18.0524 23.595 17.9143 22.9697 17.5001C22.3443 17.0778 21.9342 16.4972 21.7393 15.7581C21.7068 15.5795 21.7393 15.417 21.8367 15.2709C21.9342 15.1247 22.0682 15.0435 22.2387 15.0272C22.393 14.9866 22.5433 15.011 22.6895 15.1003C22.8356 15.1896 22.929 15.3115 22.9697 15.4658C23.0509 15.7744 23.2336 16.0789 23.5178 16.3794C23.794 16.688 24.2447 16.8017 24.87 16.7205C25.0243 16.7043 25.1705 16.7449 25.3086 16.8423C25.4466 16.9398 25.536 17.0657 25.5766 17.22C25.6172 17.3743 25.5766 17.5245 25.4548 17.6707C25.3411 17.8169 25.2071 17.8981 25.0528 17.9143Z" fill="rgb(137,129,247)" fill-rule="nonzero" />
</svg>
