<svg viewBox="0 0 32 32" xmlns="http://www.w3.org/2000/svg" xmlns:xlink="http://www.w3.org/1999/xlink" width="32.000000" height="32.000000" fill="none" customFrame="#000000">
	<rect id="喝水" width="32.000000" height="32.000000" x="0.000000" y="0.000000" />
	<path id="path" d="M5.34575 4.28255L7.44987 27.983C7.51858 28.757 8.16697 29.3503 8.94399 29.3503L23.0784 29.3503C23.856 29.3503 24.5046 28.7562 24.5727 27.9817L26.6561 4.28126C26.7332 3.40437 26.0422 2.6499 25.1619 2.6499L6.83987 2.6499C5.95909 2.6499 5.26786 3.40522 5.34575 4.28255ZM23.3536 14.0312C21.364 13.5999 18.9231 13.7124 16.0104 14.3874C12.9132 15.0999 10.4518 14.7999 8.62624 13.4874L8.01155 6.53195C7.93403 5.65482 8.62518 4.8999 9.50573 4.8999L22.4995 4.8999C23.3783 4.8999 24.0688 5.6519 23.9941 6.52748L23.3536 14.0312Z" fill="rgb(16,188,135)" fill-rule="nonzero" />
</svg>
