<svg viewBox="0 0 32 32" xmlns="http://www.w3.org/2000/svg" xmlns:xlink="http://www.w3.org/1999/xlink" width="32.000000" height="32.000000" fill="none" customFrame="#000000">
	<rect id="规律起床" width="32.000000" height="32.000000" x="0.000000" y="0.000000" />
	<path id="矢量 70" d="M15.999 2C8.26703 2 1.99902 8.268 1.99902 16.0002C1.99902 18.2447 2.52711 20.3659 3.46628 22.2461L22.6432 22.2461C23.0668 22.1482 23.3829 21.7684 23.3829 21.3148C23.3829 20.7868 22.955 20.3589 22.4269 20.3589L16.7965 20.3589L16.1426 20.3545C14.9126 20.3545 13.9156 19.3573 13.9156 18.1272C13.9156 16.897 14.9126 15.8998 16.1426 15.8998L22.5597 15.8998C22.638 15.8998 22.7159 15.904 22.7923 15.9119L29.999 15.9119C29.9515 8.22046 23.7017 2 15.999 2ZM29.951 17.1711L24.5718 17.1711L19.2537 17.1729C18.7266 17.1729 18.2992 17.6001 18.2992 18.1275C18.2992 18.6546 18.7266 19.082 19.2537 19.082L24.5723 19.082L25.4612 19.0874C26.6912 19.0874 27.6886 20.0846 27.6886 21.3148C27.6886 22.5449 26.6912 23.5421 25.4612 23.5421L24.1668 23.5421L4.20224 23.5421C6.69024 27.426 11.044 30.0002 15.999 30.0002C23.3367 30.0002 29.3563 24.3552 29.951 17.1711Z" fill="rgb(137,129,247)" fill-rule="evenodd" />
</svg>

