<svg viewBox="0 0 32 32" xmlns="http://www.w3.org/2000/svg" xmlns:xlink="http://www.w3.org/1999/xlink" width="32.000000" height="32.000000" fill="none">
	<defs>
		<clipPath id="clipPath_0">
			<rect width="32.000000" height="32.000000" x="0.000000" y="0.000000" fill="rgb(255,255,255)" />
		</clipPath>
	</defs>
	<rect id="服药提醒" width="32.000000" height="32.000000" x="0.000000" y="0.000000" />
	<path id="合并" d="M25.2641 5.03869C24.0641 3.81869 22.4441 3.15869 20.7441 3.15869C19.0441 3.15869 17.4241 3.81869 16.2241 5.03869L5.02405 16.2387C3.80404 17.4387 3.14404 19.0387 3.14404 20.7587C3.14404 22.4587 3.80404 24.0787 5.02405 25.2787C6.22405 26.4787 7.84405 27.1587 9.54405 27.1587C11.2441 27.1587 12.8641 26.4987 14.0641 25.2787L14.633 24.7097C14.414 23.9703 14.2964 23.1872 14.2964 22.3766C14.2964 22.2549 14.299 22.1338 14.3043 22.0134L12.5317 23.7384C11.7317 24.5384 10.6717 24.9784 9.55173 24.9784C8.43172 24.9784 7.37172 24.5384 6.57172 23.7384C5.77172 22.9384 5.33172 21.8784 5.33172 20.7584C5.33172 19.6384 5.77172 18.5784 6.57172 17.7784L10.7817 13.6656C11.3711 13.0898 12.3138 13.0945 12.8974 13.6762L16.2714 17.0389C17.7753 15.2868 20.0062 14.1768 22.4963 14.1768C23.3068 14.1768 24.0899 14.2944 24.8293 14.5134L25.2641 14.0787C26.4641 12.8787 27.1441 11.2587 27.1441 9.5587C27.1441 7.8587 26.4841 6.2387 25.2641 5.03869ZM28.9971 22.3759C28.9971 25.96 26.0809 28.8756 22.4968 28.8756C18.9126 28.8756 15.9971 25.96 15.9971 22.3759C15.9971 18.7911 18.9126 15.8755 22.4968 15.8755C26.0815 15.8755 28.9971 18.7917 28.9971 22.3759ZM22.1693 18.9975C21.6488 18.9975 21.2406 19.4057 21.2406 19.9262L21.2406 22.7121C21.2406 23.2317 21.6488 23.64 22.1693 23.64L24.6121 23.6378C25.1327 23.6378 25.5408 23.2289 25.5408 22.7091C25.5408 22.1895 25.1327 21.7812 24.6121 21.7812L23.0979 21.7835L23.0979 19.9262C23.0979 19.4057 22.6898 18.9975 22.1693 18.9975Z" opacity="0" fill="rgb(0,125,255)" fill-rule="evenodd" />
	<g id="药icon" customFrame="url(#clipPath_0)">
		<rect id="药icon" width="32.000000" height="32.000000" x="0.000000" y="0.000000" />
		<path id="矢量 48" d="M26.5419 5.45833C25.2918 4.18748 23.6044 3.5 21.8333 3.5C20.0627 3.5 18.3748 4.18748 17.1253 5.45833L5.45812 17.125C4.18748 18.375 3.5 20.0416 3.5 21.8334C3.5 23.6041 4.18748 25.2917 5.45812 26.5417C6.70823 27.7916 8.39557 28.5 10.1667 28.5C11.9373 28.5 13.6252 27.8125 14.8747 26.5417L26.5419 14.875C27.7914 13.625 28.5 11.9375 28.5 10.1666C28.5 8.39585 27.8125 6.7083 26.5419 5.45833ZM7.06279 24.9375C7.8962 25.7708 9.00038 26.2291 10.1673 26.2291C11.3336 26.2291 12.4378 25.7708 13.2712 24.9375L17.9287 20.4048C18.3992 19.9467 18.4037 19.1919 17.9387 18.7281L13.3777 14.1828C12.9222 13.7284 12.1853 13.7247 11.7253 14.1746L7.06279 18.7292C6.22938 19.5625 5.77106 20.6666 5.77106 21.8333C5.77106 23 6.22938 24.1042 7.06279 24.9375Z" fill="rgb(0,125,255)" fill-rule="evenodd" />
	</g>
</svg>
