<svg viewBox="0 0 32 32" xmlns="http://www.w3.org/2000/svg" xmlns:xlink="http://www.w3.org/1999/xlink" width="32.000000" height="32.000000" fill="none" customFrame="#000000">
	<rect id="步数" width="32.000000" height="32.000000" x="0.000000" y="0.000000" />
	<path id="合并" d="M4.29149 8.36323C6.26447 6.15143 9.41578 3.51561 9.41578 3.51561C10.2554 2.92981 11.7901 3.0709 12.099 4.49445C12.3314 5.6295 12.9898 6.82877 14.0119 7.67645C14.9252 8.41173 15.6487 8.6345 16.0832 8.76542C17.0037 9.01923 18.0498 9.01913 18.8181 8.83863C18.9624 8.79711 19.2523 8.73414 19.5523 8.62318C19.9334 8.48222 20.3469 8.37692 20.6488 8.33031C21.9403 8.13088 22.5754 9.26985 22.5745 10.2549C22.5735 11.2497 22.5812 13.5728 22.9312 15.7258C23.2963 17.9716 24.0057 20.0324 24.0678 20.2076C24.2693 20.7755 24.8256 21.167 25.7839 21.167L25.9394 21.167C27.9115 21.167 29.4458 22.8812 29.228 24.8412C29.095 26.0382 28.0833 26.9437 26.879 26.9437L22.2736 26.9437C19.1513 26.9437 16.1963 24.5421 16.1963 24.5421L3.92367 13.4893C2.33278 11.9116 2.31851 10.575 4.29149 8.36323ZM13.8668 26.1674C13.8668 25.1458 13.0386 24.3175 12.017 24.3175L4.61745 24.3175C3.5958 24.3175 2.76758 25.1458 2.76758 26.1674C2.76758 27.1891 3.5958 28.0173 4.61745 28.0173L12.017 28.0173C13.0386 28.0173 13.8668 27.1891 13.8668 26.1674Z" fill="rgb(255,117,0)" fill-rule="evenodd" />
</svg>
