<svg viewBox="0 0 32 32" xmlns="http://www.w3.org/2000/svg" xmlns:xlink="http://www.w3.org/1999/xlink" width="32.000000" height="32.000000" fill="none">
	<rect id="血压测量" width="32.000000" height="32.000000" x="0.000000" y="0.000000" />
	<path id="合并" d="M13.1728 2.82877L12.7975 3.24205C6.72864 9.9588 3.677 15.0311 3.677 18.6278C3.677 24.1891 8.25896 28.6938 13.9067 28.6938C15.7248 28.6938 17.4325 28.227 18.9124 27.4084C16.636 25.9708 15.124 23.4327 15.124 20.5414C15.124 16.4506 18.1506 13.0668 22.0867 12.5069C20.5104 9.75522 18.0265 6.53837 14.6405 2.82877C14.2476 2.39822 13.5658 2.39822 13.1728 2.82877ZM23.2406 14.1042C26.7955 14.1042 29.6773 16.986 29.6773 20.5409C29.6773 24.0957 26.7955 26.9775 23.2406 26.9775C19.6858 26.9775 16.804 24.0957 16.804 20.5409C16.804 16.986 19.6858 14.1042 23.2406 14.1042ZM25.6938 17.1688C25.5494 17.0524 25.3423 17.0582 25.2055 17.1828L22.528 19.6145C22.4477 19.6677 22.3736 19.7338 22.3096 19.8127C21.9744 20.2266 22.0384 20.8353 22.4527 21.1706C22.8669 21.5059 23.4757 21.4419 23.8109 21.028C23.8749 20.9491 23.9239 20.8631 23.959 20.7733L25.7817 17.6494C25.8745 17.4895 25.8369 17.2854 25.6938 17.1688Z" fill="rgb(235,70,103)" fill-rule="evenodd" />
</svg>
