<svg viewBox="0 0 32 32" xmlns="http://www.w3.org/2000/svg" xmlns:xlink="http://www.w3.org/1999/xlink" width="32.000000" height="32.000000" fill="none">
	<rect id="压力" width="32.000000" height="32.000000" x="0.000000" y="0.000000" />
	<path id="矢量 71" d="M15.2266 14.5467C15.8644 14.5467 16.4738 14.4559 17.0549 14.2743C17.5023 14.1345 17.9329 13.9408 18.3467 13.6933C18.7802 13.4381 19.1741 13.1412 19.5282 12.8028C19.951 12.3989 20.3171 11.9357 20.6267 11.4133C20.8585 11.0158 21.0424 10.6031 21.1783 10.1752C21.3705 9.56957 21.4667 8.93332 21.4667 8.26668C21.4667 7.63756 21.3797 7.03468 21.2058 6.45805C21.0676 5.99993 20.8746 5.55836 20.6267 5.13334C20.3171 4.61099 19.951 4.14784 19.5283 3.7439C19.1742 3.40571 18.78 3.10851 18.3467 2.85335C17.9329 2.60585 17.5023 2.41219 17.0549 2.27238C16.4739 2.09085 15.8643 2 15.2266 2C14.542 2 13.8906 2.1014 13.2725 2.3042C12.8555 2.44105 12.4533 2.62419 12.0667 2.85335C11.5867 3.13333 11.1567 3.46332 10.7767 3.84334C10.3967 4.22333 10.0667 4.65333 9.78666 5.13334C9.5518 5.54244 9.36698 5.96688 9.23222 6.40666C9.05077 6.99881 8.96 7.61892 8.96 8.26668C8.96 8.95299 9.06026 9.60696 9.26078 10.2286C9.3927 10.6375 9.56799 11.0324 9.78666 11.4133C10.0667 11.8933 10.3966 12.3233 10.7766 12.7033C11.1566 13.0833 11.5867 13.4133 12.0667 13.6933C12.4535 13.9225 12.8554 14.1056 13.2725 14.2424C13.8906 14.4453 14.542 14.5467 15.2266 14.5467ZM21.7019 29.3333C20.7396 28.5589 19.9057 27.7144 19.2 26.8C18.3704 25.712 17.8853 24.5828 17.7449 23.4121C17.7258 23.2535 17.7131 23.0935 17.7067 22.9333C17.6736 22.0935 17.8207 21.3429 18.1482 20.6816C18.3475 20.2791 18.6137 19.9097 18.9467 19.5733C19.322 19.198 19.8024 18.8596 20.32 18.6266C20.8534 18.3778 21.3867 18.2311 21.92 18.1866C22.2185 18.1754 22.508 18.182 22.7887 18.2064C22.39 17.9391 21.9716 17.6926 21.5333 17.4667C20.0192 16.694 18.4846 16.2606 16.9294 16.1663C16.7134 16.1532 16.4968 16.1466 16.28 16.1466L14.1466 16.1466C13.9301 16.1466 13.714 16.1532 13.4983 16.1663C11.9431 16.2606 10.4074 16.694 8.89335 17.4667C7.80231 18.0291 6.8358 18.7195 5.99382 19.5381C5.50502 20.0134 5.05819 20.5318 4.65332 21.0933C4.00176 21.9919 3.54278 22.9416 3.27637 23.9427C3.09212 24.635 3 25.3519 3 26.0933C3 26.6889 3.14665 27.2356 3.43998 27.7333C3.72445 28.2222 4.11112 28.6089 4.60002 28.8934C4.8766 29.0563 5.16417 29.174 5.46273 29.2465C5.70115 29.3042 5.94761 29.3333 6.19999 29.3333L21.7019 29.3333ZM27.96 20.32C28.2178 20.4355 28.4756 20.6311 28.7334 20.9067C29.2845 21.4666 29.5511 22.16 29.5334 22.9867C29.5156 23.8222 29.2489 24.5822 28.7334 25.2666C28.1378 26.0311 27.6089 26.64 27.1467 27.0933C26.6933 27.5377 26.1867 27.9422 25.6267 28.3066C25.44 28.4311 25.2445 28.5378 25.04 28.6266C24.8356 28.7067 24.6711 28.7467 24.5467 28.7467C24.2889 28.7467 23.9467 28.6 23.52 28.3066C22.4534 27.5333 21.5156 26.6355 20.7067 25.6133C20.0845 24.8044 19.7245 23.9555 19.6267 23.0667C19.5635 22.4977 19.6377 21.9957 19.8494 21.5605C19.9652 21.3226 20.1221 21.1046 20.32 20.9067C20.5334 20.6755 20.8 20.4889 21.12 20.3466C21.44 20.2133 21.7467 20.1333 22.04 20.1066C22.4667 20.0889 22.88 20.1333 23.28 20.24C23.6711 20.3466 24.1111 20.5289 24.6 20.7867C25.0711 20.4844 25.5067 20.2844 25.9067 20.1866C26.2978 20.0977 26.6845 20.0711 27.0667 20.1066C27.4134 20.1333 27.7111 20.2044 27.96 20.32Z" fill="rgb(21,195,204)" fill-rule="evenodd" />
</svg>

