<svg viewBox="0 0 32 32" xmlns="http://www.w3.org/2000/svg" xmlns:xlink="http://www.w3.org/1999/xlink" width="32.000000" height="32.000000" fill="none">
	<rect id="饮食记录" width="32.000000" height="32.000000" x="0.000000" y="0.000000" />
	<path id="矢量 15" d="M6.58639 7.44985C5.07566 8.44197 4.80502 9.63674 4.7751 10.2463C4.7637 10.4785 4.95957 10.6466 5.19208 10.6466L26.7473 10.6466C26.9993 10.6466 27.2056 10.4516 27.1867 10.2003C27.1289 9.43026 26.8017 7.86935 25.1452 7.19229C22.9027 6.27555 20.1408 7.72415 20.1408 7.72415C20.1408 7.72415 19.655 4.39404 16.0711 4.39404C12.4879 4.39404 11.9269 7.72415 11.9269 7.72415C11.9269 7.72415 8.71483 6.05242 6.58639 7.44985ZM2.50503 12.936C2.49611 12.5967 2.77575 12.3937 3.11521 12.3937C11.6981 12.3929 20.281 12.3775 28.864 12.3768C29.2153 12.3768 29.5041 12.5848 29.4948 12.936C29.3553 18.2459 26.1925 22.797 21.676 24.9075C22.2534 25.0708 22.6766 25.6014 22.6766 26.2308C22.6766 26.9901 22.061 27.6057 21.3016 27.6057L10.6956 27.6057C9.93627 27.6057 9.32061 26.9901 9.32061 26.2308C9.32061 25.6007 9.74445 25.0697 10.3225 24.9071C5.80733 22.7964 2.64459 18.2454 2.50503 12.936Z" fill="rgb(16,188,135)" fill-rule="evenodd" />
</svg>
