<svg xmlns="http://www.w3.org/2000/svg" xmlns:xlink="http://www.w3.org/1999/xlink" width="48.000000" height="48.000000" viewBox="0 0 48 48" fill="none" version="1.1" rule-id="0" rule-config="123,34,98,111,114,100,101,114,34,58,256,48,95,52,264,256,115,116,114,111,107,101,264,91,34,95,95,67,79,76,79,82,281,34,44,48,93,125,44,34,267,53,270,34,272,274,276,278,280,282,284,286,288,290,292,294,267,54,298,300,275,277,58,279,281,283,285,287,95,289,291,293,295,95,55,314,273,316,303,320,306,323,325,292,327,102,105,108,108,101,100,298,267,269,265,299,332,302,58,34,35,70,357,358,289,351,301,101,45,111,112,97,99,105,116,121,264,295,34,327,296,331,362,372,356,358,357,360,315,276,364,366,368,370,372,48,374,311,95,313,350,384,317,355,381,382,294,397,386,367,369,371,354,391,375,329,377,333,354,380,381,383,352,363,365,405,389,408,392,328,56,298,341,343,334,305,322,308,291,294,428,108,404,388,407,34,49,46,48,444,445,424,267,57,427,342,108,430,321,307,324,309,435,451,438,406,372,442,445,446,125,327,116,119,111,95,99,111,108,259,115,49,347,411,396,418,453,336,433,339,294,468,470,472,474,114,115,50,478,349,271,481,414,400,70,417,362,460,422,373,410,297,480,378,498,400,501,316,503,440,409,393,395,496,509,399,511,402,418,514,390,447,479,519,413,521,416,523,502,420,439,526,410,426,350,436,482,432,456,434,34,436,525,354,463,464,516,328,449,540,451,542,455,289,49,93,458,343,548,441,443,551,374,327,274,117,110,100,95,258,116,116,111,109,493,350,267,51,450,429,318,304,454,337,44,50,561,546,459,535,461,549,566,464,527,495,34,346,354,77,51,50,46,52,53,32,49,51,46,50,67,51,52,46,51,57,611,613,50,32,51,53,46,57,610,49,618,55,55,625,627,629,611,54,46,55,76,626,628,610,606,608,53,616,636,645,618,620,625,652,621,643,637,646,609,635,644,76,49,627,53,52,661,629,67,612,46,54,668,630,607,48,667,617,619,621,49,676,678,607,609,663,683,638,640,670,688,631,640,634,671,673,671,624,664,46,666,622,614,642,685,630,623,90,512,353,531,359,533,513,595,504,391,714,385,119,105,100,116,104,462,640,53,599,506,298,603,34,77,49,56,46,56,667,698,50,663,736,738,611,442,49,54,77,50,57,46,664,703,50,741,750,752,630,746,313,719,398,415,713,361,715,387,596,373,762,45,721,723,725,597,55,728,465,517,731,372,734,692,751,57,49,642,650,611,785,477,762,379,499,710,419,768,717,796,772,722,724,726,777,729,393,330,350,732,749,639,56,56,32,50,618,57,76,50,746,49,625,48,672,55,811,737,814,51,824,54,641,820,752,822,816,628,796,794,522,766,385,716,515,800,773,803,776,778,444,527,539,256,810,49,760,832,815,824,55,56,53,741,51,812,51,617,859,640,862,864,866,868,659,53,51,49,616,873,678,618,56,54,786,654,737,55,52,673,865,737,50,56,822,875,744,891,56,893,787,700,666,49,634,898,900,670,613,682,702,906,894,745,752,54,858,679,883,885,856,915,917,706,877,663,857,634,50,860,871,90,749,627,50,865,815,743,49,48,53,819,55,701,48,54,836,639,876,786,67,50,943,871,610,50,639,49,57,868,952,737,863,955,627,54,52,744,961,728,673,50,627,830,952,951,943,664,637,837,629,53,947,672,664,836,817,53,982,815,639,956,883,815,973,48,952,819,613,57,57,862,815,943,53,55,935,819,442,55,877,667,972,619,945,54,951,442,51,738,621,980,53,1021,824,738,677,815,987,1024,608,57,1012,995,916,951,824,631,777,994,672,863,51,869,1038,955,957,57,1010,869,52,1032,990,701,52,51,819,607,55,946,624,893,737,939,941,929,1031,678,463,861,878,1066,1045,625,442,52,935,814,1072,52,1039,877,628,54,813,1050,1052,646,1011,648,1066,1026,645,607,916,820,815,1018,1020,625,1094,54,1096,834,1010,631,1100,619,631,1065,999,1001,905,824,677,884,819,991,1084,905,607,877,738,951,639,946,863,1107,916,52,836,977,1023,890,1101,1130,1003,944,946,1107,1122,52,976,962,972,1074,628,55,48,928,953,963,1146,1076,53,1078,1004,945,1146,48,56,48,787,1013,935,971,938,940,709,562,452,586,335,543,338,1170,564,550,806,553,781,604,904,1147,739,1121,617,663,665,1130,695,1186,1142,671,910,1185,619,868,921,747,858,693,750,1043,1199,916,695,639,1148,818,1205,1201,751,677,787,898,867,739,1213,1130,642,880,689,1209,879,737,1217,611,618,1203,886,56,888,697,1192,1107,609,744,682,1197,52,642,1114,972,814,1239,1217,1242,443,1244,914,1200,616,1243,1155,611,831,777,1078,751,966,1149,1256,614,885,757,664,1160,1263,750,1071,736,916,1268,939,1264,836,736,952,1255,1275,832,1255,1062,1279,1245,857,819,1278,1258,611,1192,663,751,1006,1196,1247,958,640,816,1251,1035,1298,1295,1263,1282,1245,751,867,681,824,1270,611,743,1051,1269,950,735,619,1023,1316,822,1183,1048,739,1257,1280,943,1324,1301,54,663,1328,888,1291,1240,1169,593,585,319,431,558,44,560,1176,844,726,551,409,327,115,113,117,97,114,101,574,111,576,578,580,266,95,1361,1338,1171,1340,588,484,1345,798,440,1178,779,328,601,810,875,754,616,655,754,674,1228,694,1383,747,640,788,644,1236,648,657,651,680,886,653,1393,1391,674,1188,1054,674,908,672,1386,688,679,653,1239,1027,875,687,443,739,1208,691,1414,1384,633,703,697,623,611,1189,754,705,647,754,1337,397,840,532,842,797,421,845,771,847,775,565,805,1374,376,809,782,1318,1238,623,741,1447,739,760,749,751,753,740,819,1455,759,915,839,510,1433,403,1346,423,1438,802,1440,1009,850,552,312,1181,733,1410,1218,628,1215,789,1298,786,1462,712,401,1434,564,718,1487,1439,804,1472,527,808,854,782,956,828,1028,628,1008,835,823,825,827,1085,830,825,1502,856,1500,449,793,1463,765,1465,1371,526,1468,774,1492,1179,267,853,602,1446,927,869,861,863,1221,1226,960,930,1531,1216,874,924,878,1537,881,737,884,895,882,1233,625,812,900,1391,897,1549,894,1401,903,905,1553,878,1194,972,678,1558,1330,905,882,1544,1564,1391,925,1211,928,1535,50,932,1164,936,1062,894,940,942,1138,983,949,1071,1151,1145,1498,958,960,1586,964,672,967,1012,1157,971,995,975,961,978,955,987,989,1498,1126,986,644,1604,1118,993,1013,974,833,1111,1002,969,1006,1056,1104,1011,1040,830,1035,834,1019,1315,1022,1030,1026,1012,1029,1086,1033,1014,1624,1037,1080,1592,54,1042,1044,1638,1053,958,1049,1066,1051,1012,948,1055,1057,640,1060,937,1063,1580,1647,1087,1069,894,1036,752,1643,1082,1076,1019,1642,1081,442,57,1084,1078,824,1648,1140,1109,1662,1092,1128,1102,836,1098,1315,646,1095,1682,640,1621,1088,1109,998,628,1112,1504,1115,818,1498,992,1120,1108,1123,1605,664,624,1685,966,1131,758,1671,1680,1136,969,945,895,1121,735,1142,961,954,1146,1048,1262,1719,1152,1665,1250,1713,890,463,1161,1163,934,1577,1167,53,1337,547,1466,565,1348,527,554,1496,1182,1333,1296,1187,902,1190,1335,1217,1404,1195,1751,1198,1528,1202,959,1568,1387,1209,926,922,695,1219,1215,1222,1298,1214,1532,56,1227,1761,48,57,1225,1772,1198,1229,1759,918,1547,1246,1538,647,1238,1292,1508,996,1280,1788,1254,1286,922,1253,1249,1280,1326,1259,1593,1262,1275,1312,1266,728,1245,1311,950,1062,1273,1807,1276,1655,1285,1305,1290,1284,1290,1211,1288,614,1819,1292,1303,1300,1784,1241,1825,1452,1795,1829,1816,1280,1308,1409,1808,1322,1314,1310,1276,670,736,626,1840,1312,1323,1334,1281,1819,1746,1330,1332,1184,1755,52,1737,556,1172,1341,589,1344,1365,1177,598,465,569,117,344,494,412,711,35,958,1874,1513,1487,1739,1373,851,294,1377,736,610,665,67,1130,1063,32,665,32,52,618,610,736,735,1891,1893,914,941,1892,701,625,1883,1886,1898,1887,913,1907,822,1901,645,1883,1897,701,76,751,610,1911,67,957,814,1911,625,1902,1909,1924,1912,1915,613,1460,1392,1902,1895,814,1921,1889,1902,1917,1937,941,1019,1902,665,1430,524,1491,354,613,1741,730,508,530,1873,786,1955,800,1878,1865,1880,1526,1182,627,747,1940,1056,700,1964,50,605,607,899,1965,1427,1972,493,1520,848,34,1949,567,410,518,1434,379,1875,958,1957,1518,597,1741,1881,782,1930,611,641,1923,904,846,1469,372,1980,1523,528,1984,414,1986,1876,1517,1436,1347,567,1992,604,1062,1052,1013,666,1293,1418,643,1892,749,736,1087,627,686,1769,1634,988,1999,1521,1948,1959,1473,95,1525,541,1515,1486,1738,1989,295,2034,360,810,699,736,1051,755,76,889,1313,1031,2050,2052,1942,1648,878,2052,1076,672,865,634,2061,966,755,1891,636,1032,895,1913,609,1693,1220,1939,2073,1000,1130,67,973,1005,1002,2077,2070,815,1891,1094,2063,2086,2057,2070,819,2053,2049,1574,827,856,56,656,607,972,1248,1162,1027,1062,626,888,1796,54,677,1595,1653,51,1113,672,677,1043,1498,1772,1162,1695,939,2118,991,865,51,951,751,1130,54,2118,965,1076,1166,608,899,1021,2133,956,1137,813,1021,2125,2131,1692,1000,1334,1508,682,2099,819,1037,939,2143,614,1076,615,1298,982,884,1040,966,1238,1883,1772,1639,1594,1995,628,2099,971,991,2157,670,943,620,53,2172,1226,1320,1183,2177,1150,1653,637,1323,2099,928,1843,2131,1619,442,1232,1102,1107,2102,2187,1710,891,612,832,2175,680,2178,1548,1688,940,2169,2183,625,943,1129,1322,1328,2188,1903,614,2082,1842,701,1772,905,743,2160,790,701,904,2071,962,1968,2153,2229,972,861,2146,1048,1565,619,55,856,1581,2142,2233,946,55,951,2048,1772,2229,862,988,815,2129,747,1928,2251,645,1114,939,678,1278,2245,2109,2111,2211,672,1084,1504,2110,1055,2206,1010,1892,2122,48,1043,2200,52,945,1117,835,2099,2196,1736,1742,584,1171,1485,500,1370,2010,408,2044,2013,1476,613,916,1048,1891,1916,1925,2080,1319,1530,1891,2086,2176,1023,1667,699,442,1065,1424,1915,2052,902,2051,697,2312,1886,673,2308,959,1922,1094,2157,2306,1942,1918,642,652,750,1922,2331,619,2333,815,1380,2336,1001,611,915,1162,890,2297,884,621,824,1093,892,2341,2349,616,1670,2099,814,2349,1146,606,2341,760,2344,2359,2337,864,1018,2337,1828,1125,884,2064,663,2370,2299,2158,2374,695,2343,1964,1387,444,2299,2358,1967,2371,32,2353,693,2360,634,2384,2346,2299,2362,2380,2393,928,663,2397,1891,709,410,583,555,585,2289,360,2041,2292,505,393,1364,2038,2407,2291,536,423,466,125">
	<desc rule-id="0_0">
			Created with Pixso.
	</desc>
	<defs rule-id="0_1"/>
	<path id="path1" d="M0 23.98C0 20.23 -0.01 16.48 0 12.73C-0.01 10.91 0.22 9.1 0.66 7.35C1.65 3.63 4.07 1.42 7.79 0.56C9.65 0.16 11.56 -0.03 13.46 0C20.65 0 27.84 0 35.04 0C36.85 -0.01 38.66 0.19 40.43 0.62C44.26 1.55 46.56 3.98 47.43 7.8C47.83 9.6 48.01 11.44 47.99 13.29C47.99 20.56 47.99 27.83 47.99 35.09C48 36.89 47.8 38.69 47.38 40.43C46.44 44.27 44 46.55 40.19 47.43C38.32 47.83 36.42 48.02 34.51 47.99C27.35 47.99 20.19 47.99 13.03 47.99C11.2 48.01 9.38 47.8 7.6 47.38C3.75 46.45 1.44 44.01 0.57 40.17C0.12 38.22 0 36.27 0 34.3C0 30.86 0 27.42 0 23.98Z" fill="#FFFFFF" fill-opacity="0" fill-rule="evenodd" rule-id="0_2"/>
	<circle id="path2" cx="24.000000" cy="24.000000" r="24.000000" fill="#FFFFFF" fill-opacity="0" rule-id="0_3"/>
	<path id="path3" d="M38.5 5.5C41.81 5.5 44.5 8.18 44.5 11.5L44.5 38.5C44.5 41.81 41.81 44.5 38.5 44.5L9.5 44.5C6.18 44.5 3.5 41.81 3.5 38.5L3.5 11.5C3.5 8.18 6.18 5.5 9.5 5.5L38.5 5.5Z" stroke="#191919" stroke-opacity="1.000000" stroke-width="3.000000" rule-id="0_4"/>
	<path id="path4" d="M15.16 5.53L15.16 2M32.82 5.53L32.82 2" stroke="#191919" stroke-opacity="1.000000" stroke-width="3.000000" stroke-linecap="round" rule-id="0_5"/>
	<path id="path5" d="M3.5 17L44.5 17" stroke="#191919" stroke-opacity="1.000000" stroke-width="3.000000" rule-id="0_6"/>
	<path id="path6" d="M28.94 25.54L19.04 35.44M28.94 35.45L19.04 25.55" stroke="#191919" stroke-opacity="1.000000" stroke-width="3.000000" stroke-linejoin="round" stroke-linecap="round" rule-id="0_7"/>
	<path id="path7" d="M2 18.4922L46 18.4922L46 38.4941C46 42.6367 42.6422 45.9941 38.5 45.9941L9.5 45.9941C5.35785 45.9941 2 42.6367 2 38.4941L2 18.4922ZM26.1189 32.25L30.0104 28.3574C30.6044 27.7637 30.6043 26.8301 30.0103 26.2363C29.4163 25.6426 28.4829 25.6426 27.889 26.2363L23.9974 30.1289L20.1109 26.2422C19.5169 25.6484 18.5835 25.6484 17.9896 26.2422C17.3956 26.8359 17.3957 27.7695 17.9897 28.3633L21.8762 32.25L17.9896 36.1367C17.3956 36.7305 17.3957 37.6641 17.9897 38.2578C18.5837 38.8516 19.5171 38.8516 20.111 38.2578L23.9977 34.3711L27.8891 38.2617C28.4831 38.8555 29.4165 38.8555 30.0104 38.2617C30.6044 37.668 30.6043 36.7344 30.0103 36.1406L26.1189 32.25Z" clip-rule="evenodd" fill="#FFFFFF" fill-opacity="0.000000" fill-rule="evenodd" rule-id="0_8"/>
	<path id="path8" d="M13.6697 4L9.5 4C5.35785 4 2 7.35938 2 11.5L2 15.5L46 15.5L46 11.5C46 7.35938 42.6422 4 38.5 4L34.3298 4L34.3298 2C34.3298 1.16016 33.6699 0.5 32.8298 0.5C31.9898 0.5 31.3298 1.16016 31.3298 2L31.3298 4L16.6697 4L16.6697 2C16.6697 1.16016 16.0097 0.5 15.1697 0.5C14.3297 0.5 13.6697 1.16016 13.6697 2L13.6697 4Z" clip-rule="evenodd" fill="#FFFFFF" fill-opacity="0.000000" fill-rule="evenodd" rule-id="0_9"/>
</svg>