<svg xmlns="http://www.w3.org/2000/svg" xmlns:xlink="http://www.w3.org/1999/xlink" width="48px" height="48px" viewBox="0 0 48 48" version="1.1" rule-id="0_0" rule-config="123,34,114,117,108,101,34,58,256,50,95,52,262,256,115,116,114,111,107,101,45,108,105,110,101,106,111,278,262,34,95,95,69,77,80,84,89,286,34,44,34,270,272,274,284,35,49,57,302,302,294,34,102,105,108,108,45,111,112,97,99,105,116,121,262,48,295,308,310,300,70,326,327,306,100,284,77,54,44,50,54,32,76,52,50,334,336,67,52,52,46,50,48,303,51,57,341,32,52,333,50,55,46,55,57,48,56,54,49,353,333,51,48,337,354,44,51,56,32,343,333,52,48,346,348,49,350,353,345,347,349,351,339,353,340,388,76,376,50,374,51,358,360,362,49,44,388,390,378,385,381,57,32,340,372,337,409,368,67,340,356,397,361,363,32,396,359,418,400,335,32,355,336,90,306,313,315,317,319,58,285,287,289,291,293,125,295,265,51,268,296,271,273,261,435,301,303,452,306,323,311,431,316,318,320,322,309,108,325,327,326,329,331,333,336,338,340,342,344,379,386,44,336,370,357,422,399,365,44,49,368,338,333,49,373,375,334,404,380,382,474,405,350,334,394,339,499,337,355,394,67,421,398,363,502,415,493,386,408,484,373,76,340,485,374,340,480,508,364,507,423,477,426,527,429,441,34,265,50,445,455,312,314,458,434,321,307,462,464,465,34,531,265,48,445,297,448,537,432,459,58,541,551,299,450,465,466,461,310,553,539,460,542,324,560,561,546,442,95,49,550,447,274,565,433,567,558,449,34,35,561,70,546,531,98,111,114,100,101,114,445,265,267,263,446,298,275,277,279,281,283,435,272,117,110,330,295,582,262,91,436,67,79,76,79,82,293,44,48,93,547,95,444,599,613,58,615,286,617,619,621,95,294,624,125,531,455,101,330,599,443,535,462,579,555,436,288,290,292,637,563,463,631,616,618,620,622,624,612,577,449,632,95,634,661,655,639,573,598,256,536,457,580,435,286,652,439,655,568,657,667,669,636,638,93,664,601,276,278,280,282,110,284,608,610,306,630,686,660,688,623,625,531,109,259,116,105,112,260,95,99,111,108,591,115,596,627,576,601,614,659,635,662,625,673,723,448,725,633,704,622,50,690,600,552,603,695,606,257,111,609,330,640,295,116,119,111,715,717,719,575,645,266,731,559,703,727,671,738,582,693,604,696,698,745,700,748,34,750,752,716,718,114,115,534,757,628,269,665,733,668,735,763,656,649,434,651,438,654,454,543,658,734,762,689,626,674,739,760,726,670,294,49,738,676,538,678,792,653,622,684,785,687,622,808,691,740,694,605,697,607,770,747,531,699,100,95,590,116,116,111,109,756,264,95,780,675,648,677,650,680,793,440,573,782,34,644,34,77,49,53,484,53,337,51,51,857,395,345,485,52,53,54,57,856,855,420,870,53,46,56,869,52,367,858,51,870,55,859,856,50,364,506,885,50,46,865,867,869,420,864,48,866,868,885,51,420,861,50,901,76,855,334,901,67,381,875,877,879,908,32,381,499,891,897,893,858,917,886,337,917,49,883,910,861,855,912,53,878,48,922,396,876,933,914,871,907,871,429,821,804,798,806,706,789,844,791,846,814,683,455,817,787,800,730,599,852,854,885,858,76,860,334,858,506,896,898,869,968,872,968,932,934,880,885,883,966,856,51,887,881,371,890,892,899,895,919,972,983,901,967,860,925,994,374,911,938,978,371,901,917,51,988,920,990,1006,364,906,903,928,923,874,1002,879,916,937,913,935,974,907,50,858,944,803,666,805,705,820,684,790,284,953,682,795,569,761,948,1033,765,741,824,769,746,588,295,830,832,111,834,836,841,532,840,647,564,951,1036,437,954,1039,685,1031,736,729,1057,850,962,942,965,967,871,970,992,921,862,986,931,1018,935,975,927,884,334,985,889,1078,990,51,971,1079,904,902,915,906,900,1000,1021,939,1023,1096,923,1008,993,1020,1088,925,930,1015,930,1017,1022,936,977,940,922,873,32,1028,702,1067,788,1034,1061,679,1063,1038,656,957,799,706,801,445,1072,964,859,903,969,1093,1091,973,1026,975,1026,1118,1084,986,356,1087,984,395,983,1107,921,991,989,973,997,996,905,907,997,929,1149,999,1006,1157,1010,861,1154,1013,334,1113,976,1083,1117,1179,1024,1139,1123,784,797,786,1134,1033,810,554,952,1130,794,1132,1186,818,655,1043,665,766,742,825,744,1048,772,115,113,117,97,114,101,1052,1054,837,721,549,629,1200,1128,813,1131,1029,1133,948,737,950,811,845,1193,815,956,1196,958,334,1069,265,838,1029,1035,1129,681,1194,1223,1233,1134,672,1070,1137,331,1073,1140,862,1077,1160,1121,1081,1115,1103,979,484,981,1151,1089,918,1255,1159,1009,1145,995,903,1164,1100,1167,1181,1105,903,1171,894,923,1012,926,1177,1082,1116,1020,1168,862,1251,1184,724,1245,948,663,1127,1228,1192,1242,1231,796,1041,705,1247,597,1249,435,963,974,966,1141,863,1144,1139,1151,1258,978,1147,1262,983,1264,1007,1312,1267,993,1004,1097,997,1099,1325,1274,1116,1325,1170,1322,1011,1111,1176,1101,1178,1285,1001,1331,1146,1025,1027,701,1185,1301,819,809,843,1296,1062,1298,955,1300,1125,807,764,1200,1045,768,826,1205,531,1207,1209,1211,1213,835,109,1056,548,759,275,1220,1037,1243,1124,947,1302,1350,1060,1352,1241,847,1355,1040,1357,1135,849,1305,853,1251,1309,1253,1143,1255,1080,873,1168,1085,1318,1110,888,1265,1268,880,1094,899,915,967,1096,1328,1096,1330,1259,915,1106,1334,903,1281,1112,1338,1284,1259,1286,1181,941,1121,1290,732,570,545,1227,1191,1353,1386,572,1057,802,1138,1308,1412,1142,1409,1145,1260,1148,1179,1317,1153,1320,1278,1408,1312,1325,1163,998,1329,1341,1417,997,1333,1266,1335,1175,1152,929,1339,1426,1461,1003,1343,1183,1346,1291,584,586,1065,1240,1221,1243,1128,378,856,1239,1361,743,830,588,125">
    <title rule-id="1_0">ic_ict_display_as_a_block_level_table-块级表格/base/ic_ict_display_as_a_block_level_table</title>
    <g id="ic_ict_display_as_a_block_level_table-块级表格/base/ic_ict_display_as_a_block_level_table" stroke="none" stroke-width="1" fill="none" fill-rule="evenodd" rule-id="1_1">
        <path d="M1.5054679,23.9816621 C1.5054679,20.4665814 1.49316512,16.9515006 1.5054679,13.4364198 C1.49839598,11.7354754 1.70745964,10.0405243 2.1276372,8.39227893 C3.04858836,4.90356126 5.32108808,2.83317869 8.80629066,2.02998273 C10.5538164,1.65241434 12.3387234,1.47551572 14.1263654,1.50272062 C20.8671186,1.50272062 27.6084577,1.50272062 34.3503826,1.50272062 C36.0530469,1.49215117 37.7507765,1.68688554 39.4068263,2.08270894 C42.9974813,2.96147914 45.1522258,5.2357364 45.9729972,8.81408862 C46.3419987,10.5052784 46.5182902,12.232817 46.4985018,13.9636819 C46.4985018,20.7770802 46.4985018,27.5910643 46.4985018,34.4056342 C46.5077071,36.0918853 46.3135624,37.7730956 45.920271,39.4128667 C45.0415008,43.0052793 42.7566983,45.1494786 39.1783461,45.9702499 C37.4305962,46.3463893 35.6458526,46.5232717 33.8582713,46.497512 C27.1456387,46.497512 20.433592,46.497512 13.7221311,46.497512 C12.0064517,46.5115153 10.2952822,46.3197463 8.62526401,45.9263114 C5.01879113,45.0475412 2.85350138,42.7627387 2.03448756,39.1668111 C1.61619295,37.3389691 1.5054679,35.5058545 1.5054679,33.656922 C1.5054679,30.4324212 1.5054679,27.2073346 1.5054679,23.9816621 Z" id="path1" stroke-opacity="0" stroke="#FFFFFF" stroke-width="2" fill-opacity="0" fill="#FFFFFF" fill-rule="nonzero" rule-id="2_0"/>
        <path d="M1.5054679,23.9816621 C1.5054679,20.4665814 1.49316512,16.9515006 1.5054679,13.4364198 C1.49839598,11.7354754 1.70745964,10.0405243 2.1276372,8.39227893 C3.04858836,4.90356126 5.32108808,2.83317869 8.80629066,2.02998273 C10.5538164,1.65241434 12.3387234,1.47551572 14.1263654,1.50272062 C20.8671186,1.50272062 27.6084577,1.50272062 34.3503826,1.50272062 C36.0530469,1.49215117 37.7507765,1.68688554 39.4068263,2.08270894 C42.9974813,2.96147914 45.1522258,5.2357364 45.9729972,8.81408862 C46.3419987,10.5052784 46.5182902,12.232817 46.4985018,13.9636819 C46.4985018,20.7770802 46.4985018,27.5910643 46.4985018,34.4056342 C46.5077071,36.0918853 46.3135624,37.7730956 45.920271,39.4128667 C45.0415008,43.0052793 42.7566983,45.1494786 39.1783461,45.9702499 C37.4305962,46.3463893 35.6458526,46.5232717 33.8582713,46.497512 C27.1456387,46.497512 20.433592,46.497512 13.7221311,46.497512 C12.0064517,46.5115153 10.2952822,46.3197463 8.62526401,45.9263114 C5.01879113,45.0475412 2.85350138,42.7627387 2.03448756,39.1668111 C1.61619295,37.3389691 1.5054679,35.5058545 1.5054679,33.656922 C1.5054679,30.4324212 1.5054679,27.2073346 1.5054679,23.9816621 Z" id="path2" stroke-opacity="0" stroke="#FFFFFF" stroke-width="2" opacity="0.200000003" fill-rule="nonzero" rule-id="2_1"/>
        <circle id="path3" fill-opacity="0" fill="#FFFFFF" cx="24" cy="24" r="24" rule-id="2_2"/>
        <path d="M6,6 L42,6 C44.209139,6 46,7.790861 46,10 L46,18 C46,20.209139 44.209139,22 42,22 L6,22 C3.790861,22 2,20.209139 2,18 L2,10 C2,7.790861 3.790861,6 6,6 Z" id="path4" stroke="#191919" stroke-width="2" fill-opacity="0" fill="#FFFFFF" stroke-linejoin="round" rule-id="2_3"/>
        <path d="M6,26 L42,26 C44.209139,26 46,27.790861 46,30 L46,38 C46,40.209139 44.209139,42 42,42 L6,42 C3.790861,42 2,40.209139 2,38 L2,30 C2,27.790861 3.790861,26 6,26 Z" id="path5" stroke="#191919" stroke-width="2" fill-opacity="0" fill="#FFFFFF" rule-id="2_4"/>
    </g>
</svg>