<svg xmlns="http://www.w3.org/2000/svg" xmlns:xlink="http://www.w3.org/1999/xlink" width="48.000000" height="48.044922" viewBox="0 0 48 48.0449" fill="none" version="1.1" rule-id="0" rule-config="123,34,98,111,114,100,101,114,34,58,256,48,95,53,95,48,264,256,115,116,114,111,107,101,264,91,34,95,95,67,79,76,79,82,283,34,44,48,93,125,44,34,267,54,270,272,34,274,276,278,280,282,284,286,288,290,292,294,296,267,55,301,303,277,279,58,281,283,285,287,289,95,291,293,295,297,95,56,317,275,319,306,323,309,326,328,313,331,57,334,304,320,322,308,325,311,329,314,95,49,271,265,302,335,305,321,307,324,310,327,312,330,267,49,49,345,336,361,338,350,365,329,330,102,105,108,108,101,100,301,267,269,356,273,359,320,34,35,70,394,395,291,358,346,45,111,112,97,99,105,116,121,264,297,34,367,95,299,388,398,372,392,395,396,296,318,278,400,402,404,406,408,271,411,316,357,421,391,393,418,70,397,432,423,403,405,407,58,409,411,333,431,390,408,434,418,437,390,439,425,442,444,353,344,447,346,449,435,436,420,453,401,440,426,443,428,353,355,371,360,417,435,452,399,467,455,427,410,472,370,460,416,450,419,415,422,480,441,482,411,49,50,301,379,381,337,349,364,341,296,499,108,454,493,443,49,46,48,513,514,483,331,49,51,498,380,108,501,363,340,312,505,521,508,469,34,511,514,515,125,330,116,119,111,95,99,111,108,259,115,485,266,268,300,486,360,348,524,351,342,298,549,389,461,373,502,525,377,296,537,539,541,543,114,115,497,357,386,557,490,433,463,478,319,529,456,471,331,413,474,576,477,465,479,424,509,457,331,430,558,487,577,588,579,492,530,582,267,446,595,475,488,394,578,491,590,601,516,267,459,605,586,451,598,610,468,581,613,354,414,432,462,587,575,580,494,484,585,627,618,629,600,622,495,571,256,506,523,339,311,49,93,527,381,630,510,512,533,602,354,519,357,642,560,553,376,647,34,506,650,531,652,533,410,330,276,117,110,100,95,258,116,116,111,109,640,409,357,104,101,105,103,104,116,408,52,56,667,515,296,118,105,101,119,66,111,120,427,32,48,32,691,706,333,411,681,384,443,77,705,50,51,46,57,56,67,715,48,46,716,32,45,723,48,49,32,49,54,46,707,705,496,46,55,51,67,727,512,730,355,718,730,723,50,50,32,57,46,747,46,54,54,32,55,46,51,53,67,511,54,53,32,717,54,51,706,512,55,731,734,750,759,55,57,704,46,53,54,67,752,765,780,732,731,511,782,726,728,770,518,734,757,48,67,50,723,786,715,759,56,52,704,767,53,512,806,798,51,733,56,766,742,729,767,692,756,787,779,52,723,52,770,801,50,67,52,52,724,757,790,766,52,733,791,717,719,706,759,826,758,46,720,52,804,770,785,708,743,789,734,806,848,718,779,795,50,57,830,759,57,779,800,781,757,857,865,32,50,849,842,858,808,512,862,707,813,846,823,804,819,755,883,760,56,706,825,740,837,855,706,832,873,895,706,838,836,723,49,887,826,67,51,692,51,750,857,56,770,881,52,910,692,48,750,51,832,53,730,870,862,873,760,836,864,866,902,887,871,795,48,770,924,763,511,916,853,752,907,875,889,759,869,759,907,906,738,836,733,52,766,511,831,895,853,723,53,773,824,753,55,721,753,919,692,749,807,881,897,705,920,760,721,767,723,56,797,872,843,750,715,840,56,90,623,656,256,99,456,50,832,653,271,648,522,659,644,365,50,662,664,637,408,532,653,623,52,301,702,510,728,1009,296,456,752,57,55,50,765,54,397,119,105,100,116,104,408,50,917,1016,34,684,686,688,1031,929,56,48,848,1010,574,712,34,77,943,1019,1021,756,76,355,751,718,1051,54,1053,715,764,907,965,745,861,51,730,50,532,51,909,731,801,57,54,773,867,848,837,854,1068,48,773,903,718,54,48,862,369,846,48,980,731,942,769,794,50,796,815,731,692,57,49,52,744,717,903,1042,1100,755,49,53,829,795,1102,970,49,908,732,806,1103,886,53,859,692,732,834,809,53,1104,834,1125,1052,716,738,1091,1120,1132,783,994,781,1129,744,1138,872,809,1070,55,889,1117,760,1119,872,733,48,1123,1131,1110,1112,799,733,1148,1111,1109,1102,1104,982,855,1103,1093,760,1095,872,917,51,57,794,1019,1086,925,820,51,739,872,960,53,1092,861,512,815,889,1068,724,732,1191,942,805,866,511,1176,57,762,1188,54,912,1191,1097,756,1068,872,752,912,920,872,717,831,53,770,1188,1212,806,1140,861,49,76,1219,1070,806,909,734,961,799,1211,1227,767,717,51,918,1076,785,1205,767,995,56,778,1210,888,52,779,975,1041,980,1232,1189,1186,877,1217,496,1173,755,1182,913,733,1117,1201,1259,935,1176,767,1161,56,1102,799,759,1142,1228,759,1032,55,1067,759,514,1276,755,778,1076,953,1152,1182,1056,1082,76,943,1289,1020,1291,1049,1056,1022,54,90,77,737,912,1032,767,864,55,1082,763,1097,994,1102,1306,755,56,788,1089,1308,1099,1289,1278,744,939,355,773,881,1148,1272,745,54,1074,1326,733,873,1129,1072,724,1176,730,761,738,1103,1149,974,809,355,57,52,1059,1314,1295,55,1053,1097,1304,889,1294,1308,55,988,411,387,301,1046,1048,1236,1096,810,906,809,1022,731,1097,1108,881,912,731,768,1269,846,794,1128,1349,1376,1218,717,965,1385,1145,755,1228,1371,757,926,919,1367,1167,50,1225,1346,1394,1277,799,717,725,1395,872,764,1394,809,54,1221,1409,1214,738,1225,1414,1111,781,52,799,1418,1379,1134,725,737,1108,50,1401,1373,810,1292,1397,1427,52,988,619,617,489,438,1006,470,609,101,45,1026,1028,1030,651,55,53,668,411,584,357,1365,1229,1099,1222,862,1458,766,1460,767,764,1413,753,1195,724,794,832,1201,1160,846,1467,1117,1390,1412,872,896,866,1411,1221,1481,77,926,1091,1408,734,1224,1066,760,1198,1490,1444,634,1440,466,611,622,1438,1446,1027,1029,1007,951,1453,353,594,34,1365,1134,1076,723,778,799,1483,1184,738,866,1277,872,1097,761,1398,1480,1338,1225,1522,1229,954,1273,724,1242,1493,1478,1392,718,1463,1387,877,1201,1053,1383,1542,762,795,757,1341,1265,1435,1535,1175,1431,1375,1097,954,1354,810,1527,861,1310,1560,749,927,1378,755,1519,1245,1419,1336,867,778,1225,1541,1573,57,1437,575,1497,608,1502,1442,409,1502,1447,1505,1450,1452,534,353,604,1511,408,1302,1472,1076,1411,1399,1140,1218,1599,1496,443,607,464,636,1500,482,1586,1504,1449,666,1451,1508,343,1364,1595,1565,844,1429,846,1202,1557,1602,1623,1489,1572,692,56,750,1084,1279,978,755,783,49,804,1326,1097,955,1472,1228,1106,731,1643,1235,753,1604,476,635,1441,1609,1443,1611,1448,1506,1615,1591,517,414,1365,732,886,1390,815,763,733,1331,1666,955,1274,1191,1630,1632,752,1166,1237,1636,1422,724,1228,1641,1527,1477,1070,753,1685,1357,1106,1650,1606,1444,665,997,629,1587,1613,511,1659,513,623,369,1618,713,1084,1071,1134,1412,763,942,750,1709,1120,752,1112,1685,744,785,1463,921,1637,752,1148,1390,818,1084,805,1390,957,1728,1221,809,831,1692,597,1608,621,1610,1697,1612,1658,1590,1702,639,1705,1047,1687,1070,854,732,1400,753,834,511,732,799,1097,1451,1751,1394,1515,859,1106,1713,1763,731,1383,1225,1767,1150,1752,1513,1109,1757,1140,53,955,1132,1390,1750,1150,1066,1153,512,1779,1110,1474,861,1109,1634,1022,781,794,1675,1785,1760,1150,1074,1225,692,915,1646,1391,799,1802,834,921,1713,692,1217,1804,1803,1032,1110,1804,1070,1806,1665,1121,1429,1259,1149,832,1477,1815,57,1632,1825,1421,1188,903,1804,935,1246,1803,1121,918,1246,54,744,1825,1253,1824,753,866,1019,1120,832,813,1635,1155,1804,1412,1433,1636,1415,1020,906,717,1729,1140,844,1687,54,1713,1472,1396,1754,1390,49,906,1759,1067,1371,1357,1311,1875,512,1549,1374,1218,832,1058,1492,1169,1565,861,1225,1716,1067,1311,925,1724,1713,1097,1313,1226,1415,1255,1899,1222,56,1890,1381,1266,1904,1749,1218,917,720,1341,55,1221,1911,1314,1286,967,1917,1415,1353,1289,1083,1383,906,777,1567,1258,1913,1120,1756,1549,1434,1932,1301,1815,791,867,1129,1292,825,1762,1420,1905,1426,948,1904,1815,1833,867,369,1819,1708,748,1463,1802,1221,723,1554,1937,1943,1129,1579,658,552,1001,291,646,998,665,1008,1616,368,990,1594,713,1774,1084,1102,1544,1420,1170,1329,1765,1983,1323,1870,1192,1244,1761,1561,57,1053,1932,767,1557,1547,1995,1250,1083,1985,1389,1571,1228,814,51,1575,738,1380,912,1474,1929,2006,1907,1535,1990,1815,1488,1531,53,1801,1189,1992,1819,1488,1989,1918,1258,1979,1067,1541,2030,1301,1799,1076,1355,740,1084,1814,1207,1715,718,1896,1906,1951,1713,1405,720,1951,1394,1236,1514,1534,1134,707,867,1822,1709,1872,867,1525,1134,2017,891,1685,1519,1721,760,829,1939,1883,1230,2067,1076,921,930,1568,1140,1914,1225,1850,1527,1914,799,832,1245,2079,1733,1468,1871,1626,1826,1599,1517,2090,1793,369,2083,866,953,866,2082,1793,1248,2008,1887,2101,1404,1919,1793,1572,1645,2111,866,717,2026,1669,1831,1897,1218,1281,1206,951,1167,1463,1641,1463,864,740,1888,1076,1811,1467,1020,1246,1087,1489,786,1203,1681,1554,1679,818,1192,1929,1959,1191,979,1228,1515,2070,1340,2149,1489,1686,723,1265,1192,1182,1465,772,1681,1316,2161,1708,1311,1357,835,1523,846,2161,55,1139,1106,2168,746,1900,766,1229,1835,1134,1268,1229,1103,2085,753,1340,1097,1950,896,2179,1311,2072,1525,1229,1429,2186,1377,1229,1213,1622,518,1996,2171,1622,1375,2048,2186,1348,1648,2173,1527,880,995,1394,1644,1085,2109,1092,1687,1268,1709,1690,882,1415,1079,1687,1631,2109,1839,1687,2036,781,1249,717,1938,2189,1933,1493,1681,839,1106,1463,2188,846,2148,734,1877,781,965,1951,2192,888,1170,1729,2184,1083,1716,1549,1199,1547,752,897,2257,1164,1640,2254,1150,769,2204,1231,1772,919,1355,1149,1274,2239,1163,1664,1074,1648,1175,1668,1794,1648,791,1664,1340,2032,1411,2239,2229,1419,957,2228,859,1393,1648,1268,1419,2098,2221,1637,1884,913,2215,1804,1686,1387,1808,2023,1687,1032,763,986,2204,1845,1305,2200,1849,738,1881,724,1547,832,2220,2193,1768,853,2184,2297,1846,2204,2185,1571,2267,1835,1419,2210,1492,1313,1664,1784,1492,2173,2284,2199,2169,1638,1151,2165,1632,777,1228,532,1063,2129,1635,1551,1125,2153,1475,1109,2319,2151,763,1357,2147,731,777,913,728,744,843,1239,755,763,759,1163,1188,2137,1664,1459,2133,731,838,1076,2129,2284,2160,926,922,2386,2333,1487,1149,1154,1218,2118,2284,2144,838,859,1394,838,1120,809,841,2104,1993,1121,2135,2410,763,832,2056,2101,1834,2100,2187,2419,1478,1113,995,1482,753,1471,2248,2083,2321,2413,2086,1349,1150,1191,2433,2367,2124,1777,1124,1665,1863,1795,755,1867,2324,2438,1901,1830,1109,1778,1527,1853,1150,1717,2182,1088,908,2047,1982,2455,2460,2338,1101,2233,912,1936,2157,1402,724,1681,1082,1785,2281,2145,1918,1183,1192,897,2410,1053,804,1463,2108,2350,2210,1793,1183,1150,1853,1793,2281,1772,2128,2471,1150,1221,2371,1109,1075,1259,1116,1101,1956,1680,1084,2380,1101,1149,942,1463,2263,834,2259,1246,1159,1633,2376,1372,1979,2132,718,2247,1638,1259,756,799,825,2505,970,1573,1713,2499,867,2475,1277,1964,521,643,375,504,663,528,1584,1972,534,330,115,113,117,97,114,101,675,111,677,679,681,414,1036,687,689,443,691,693,1702,695,697,699,701,703,705,707,691,623,711,1595,985,2523,977,2057,770,817,744,953,889,736,1759,740,2584,1337,1313,748,750,752,754,821,948,1547,755,2179,1260,771,2473,956,776,1520,780,782,784,2601,787,1755,868,792,512,794,1215,797,2528,2612,803,2363,1345,1560,812,814,816,2373,885,821,931,890,734,827,2445,830,896,834,1141,899,2615,2316,857,844,804,863,1906,851,2565,1727,956,856,929,1567,1562,924,2067,947,876,926,1377,2658,1341,1087,830,1357,814,887,1357,820,887,943,963,905,893,957,831,724,962,856,900,2634,1833,2645,740,907,2069,944,1262,775,852,2231,921,923,929,1533,1525,2658,1951,932,1764,2617,875,865,938,1534,2651,730,1196,944,845,2660,949,1387,952,2073,2653,958,818,960,962,902,965,902,968,724,984,1380,973,1553,977,1679,1092,2623,1803,2579,719,2538,500,1000,2541,526,2543,649,2545,2566,654,1975,992,1031,995,1009,411,1011,357,1013,531,1015,668,1017,408,1050,1022,782,1025,1742,443,2018,1034,2561,1038,2769,1040,1042,316,2755,1045,1595,1297,1020,1299,1350,2764,1052,1054,1192,769,1244,763,748,1339,1489,935,1071,1330,1332,1519,1078,2614,1081,2258,1085,2666,1089,1251,2514,1171,1782,1557,1204,1787,1165,1105,1846,1108,2269,1111,1113,840,496,1632,1118,1479,1121,1331,1123,1775,821,2004,1317,1138,2008,1319,1137,1754,1139,921,1142,2829,1410,760,1182,1149,2824,1221,1154,1156,2500,2819,1474,1162,2813,1103,1280,1168,2042,813,1750,2018,1175,1177,2804,1180,1260,2478,1185,1187,752,1091,1901,1324,1204,1246,907,1248,1489,1200,1202,1240,943,1565,1208,1067,1233,2201,1215,954,1218,2886,1484,1338,1224,1226,1213,2020,2251,2891,2282,1238,1840,1241,975,1091,2087,1196,2877,1250,1091,1139,2870,1190,1256,1066,1810,2866,2691,1264,2505,1267,2691,1328,2060,1274,1104,1283,1322,1167,1282,1314,1075,2413,1287,1479,1358,1296,1357,1307,2937,1055,2782,756,2034,2037,2319,2939,1063,1311,1248,1340,946,1316,2614,1319,2179,1277,1244,1987,2802,1380,2923,2791,886,2501,972,1451,1120,2792,2344,809,1279,707,1054,1341,1347,2434,974,2947,1559,1356,1351,1359,1361,353,1363,1456,2780,1434,1374,1421,1341,2520,2990,2010,2618,1568,2003,1769,1389,1513,906,2014,1622,2935,2298,1407,1909,1398,1753,788,1395,2109,1406,1522,2788,2842,1479,3016,1921,1417,1857,2004,1681,2830,1424,1405,1368,1428,1430,1435,1856,2810,810,1579,626,1605,1737,1653,1739,1655,1741,1657,1589,1973,412,2779,713,1462,2024,3049,1464,1492,3018,1756,1469,1426,1472,1202,814,1476,1191,1518,1464,3004,2892,861,1486,2122,1489,1104,1292,511,1960,956,370,1438,1581,1607,3039,481,3041,438,1698,1743,3045,1510,1512,1576,1763,2095,3018,1767,1407,1565,2062,3015,1481,1529,1534,2020,1533,919,1850,2426,3005,1539,1921,1546,1981,1336,1550,1547,1379,3112,1555,1228,3104,3116,2204,1558,1552,1460,1563,1428,1524,955,1424,1771,1545,1577,2834,1569,1578,1736,628,3080,591,1696,3083,2768,1614,1744,654,1593,1663,1597,2423,2081,760,2423,3135,1652,1499,3040,1585,3042,1588,3142,3045,615,1976,1047,1620,1626,1667,3164,1671,1628,1915,846,1676,1342,1635,2527,2350,1990,1229,1642,718,2217,1842,3180,1648,3076,1580,3037,3136,3154,3081,3156,3140,3043,3159,1660,368,1662,1595,1664,1670,1622,1667,3199,2426,1099,2350,1901,1796,2039,2362,2527,2479,1683,781,1689,3184,3215,1687,3185,3036,1651,1498,589,3155,3139,453,3084,3044,3195,354,546,3162,1302,1712,1415,1710,1707,2460,2825,1716,2446,2098,1084,2139,1722,1711,738,3062,853,1732,1730,2042,1862,1734,1011,3077,3187,3153,3223,3190,3225,399,3227,3194,1745,472,2577,3048,1934,1754,3010,2614,1776,1759,955,1995,1577,1928,1766,2608,2004,1770,3280,1132,3132,1772,2838,2641,3286,1781,2444,1784,1793,2454,820,2060,1334,2441,1792,838,2444,1631,1797,2813,1058,1815,1837,1884,1831,1807,1804,2456,1811,2428,1814,3295,1817,2130,2672,1804,2058,1630,2308,1674,2043,2308,1831,2596,859,995,2890,2692,1838,1713,785,3182,2060,1211,2308,1847,3183,1121,1851,2143,3179,1855,1865,2051,1056,1860,2363,2443,1648,1866,1527,1828,3184,2842,1872,1229,1792,1876,2204,1209,2206,2323,2181,1884,3072,753,1221,1893,1905,2393,1888,1894,738,2044,1898,1233,1900,1469,1377,1903,1905,3383,1911,3032,1910,1189,1370,738,3170,2019,1927,2097,919,3395,1387,1292,1927,3023,1923,3278,877,1914,1991,3008,1089,732,1936,1811,1962,1384,1942,2067,1349,1188,1946,888,2022,1950,902,2060,2459,1519,3321,894,2061,866,3412,3416,2740,999,1966,2743,1969,2745,507,2747,996,1703,1975,3088,2009,2030,3110,2042,1984,1919,2030,1991,2027,3452,3098,3409,2323,1532,3456,2016,2001,1919,2998,1982,1385,3132,1385,2012,919,3003,1916,2000,2015,2020,2022,2026,1481,2025,1191,511,2017,1263,3172,1898,2032,1019,49,2034,2465,2170,2011,2039,2044,3239,3325,1565,3383,2726,1415,2314,2050,1415,2391,748,2226,2247,2058,768,2060,1959,1540,846,2053,1621,1825,2067,1527,909,2621,1812,1863,1463,2722,1527,2828,867,2216,3392,3149,2072,2084,2079,2102,3392,1871,3248,2203,2202,3248,1866,2095,1826,1263,1067,2086,2420,2877,1601,1785,2105,1134,2107,734,925,1985,2111,1221,2113,2403,1415,2117,1805,1565,2222,3069,1565,1760,2392,2170,2452,926,1176,1758,2680,1259,1572,1199,2376,2137,2788,2512,2377,2159,1249,2630,2145,919,2369,867,2256,2366,1209,2734,3061,2359,2244,760,1326,2356,2163,1340,3073,2044,2319,2169,3496,2172,2174,2090,2341,2031,2641,2180,1386,718,913,2189,1831,1825,2245,2190,2324,3363,2194,2253,2197,1140,2199,1524,2089,2203,1458,1726,2217,3500,1647,2232,3527,2214,1880,1480,2299,3608,2220,840,3614,2874,2296,2226,2292,2070,2116,1869,2233,2828,1687,2237,1870,1749,925,790,2278,2244,2317,2247,880,1641,2251,902,2253,943,3250,2265,1084,839,2261,3246,2264,2189,1083,3489,2200,2845,2603,3178,1063,1125,2274,2246,2370,2643,2243,2394,2281,3659,2284,1812,3656,834,1263,2211,2329,821,2228,1113,3254,1648,1271,2329,1372,2221,1382,2421,2303,2415,3684,2307,1121,2309,2322,1834,2224,2314,1114,2249,2318,2249,1213,1121,2212,2196,2325,846,2323,1426,809,818,2331,2329,1833,2184,1421,2336,2204,2338,2408,2355,2177,2343,3601,2322,2347,913,2349,948,3750,2796,2354,2161,1309,2486,2372,3107,1772,2362,1729,1150,2365,3377,2367,1635,3671,2499,2143,2374,734,2376,1637,2379,3581,2382,2628,3575,1120,2387,1167,3572,2343,2388,781,2585,2395,3069,1664,2181,2400,3794,1067,3559,3011,2406,2329,2409,2101,1053,3147,2414,1121,2417,3553,2422,2097,3182,3579,2094,1838,2426,2203,3808,2436,3534,2412,2075,3528,2435,2430,2438,3567,2076,2500,3533,844,2269,2446,2197,2455,3820,1169,2455,2068,3294,781,2460,2706,1783,2460,1336,2462,3560,2444,2413,2037,2468,1085,1398,2472,1918,2475,1756,2477,1218,939,1918,2105,3176,2484,3553,2378,3183,2488,2444,2491,733,2493,1125,2495,1113,1802,1167,2489,820,2522,2503,3107,1815,3175,2596,2505,841,1707,3581,2520,2515,1188,2517,1724,2519,2808,2413,2509,1519,2525,3885,1139,2529,2502,3279,1021,3879,1218,2469,1398,3433,1971,2748,669,296,114,117,382,385,301,2772,2563,307,69,77,80,84,89,311,34,696,698,700,2758,283,3926,3928,3930,327,1362,574,3220,35,903,3946,344,1583,1654,666,3441,296,1365,824,767,1420,830,1236,1340,1982,1079,1334,936,757,1716,1349,1079,1134,1129,830,2405,1627,826,2351,3894,856,715,3966,1225,1394,3966,3573,2874,3976,1184,1785,1459,2579,1940,800,1055,3970,3991,3963,2170,3647,1982,3710,1944,3955,2236,1436,1694,3263,2116,2754,353,1455,616,449,3947,903,1694,3440,1034,1457,2596,3823,3970,1175,964,3524,1283,1719,1193,2204,2135,2133,1819,1990,1084,3364,814,2446,1572,4034,4023,1486,2263,2510,2445,1292,1669,2808,1866,4004,3141,4006,3086,633,1605,4012,3948,1738,3190,2546,2567,3232,3969,2451,1831,814,1143,3998,1716,1489,1406,4066,1777,3417,4066,2688,3993,4066,1104,1627,1793,2164,2679,2112,3214,4080,1349,4075,921,1421,1263,889,4083,3956,836,3480,2602,2179,2133,1292,3214,4070,950,3596,725,4088,4061,3992,4061,2008,1787,1963,4047,3193,4049,3229,1593,3944,4053,4014,3950,4057,1696,1365,1811,1713,4034,3149,2456,4034,4110,3158,4112,3265,1617,550,433,4116,3949,3155,4119,397,1512,3073,2856,749,2141,4142,3172,1245,2200,3791,786,1341,848,2315,3214,2688,2270,1802,1326,785,757,4157,767,4159,4128,1613,4130,654,473,4133,4011,1102,4171,4117,4137,3915,3953,3198,956,3789,4143,1089,848,1398,1632,1897,1249,1524,3791,3631,1734,1063,4040,2631,2194,1340,4159,3517,4195,1636,4164,408,4166,1703,3231,4115,4171,4013,4136,4056,4175,3232,2339,1191,1215,3705,2523,2226,1632,733,2860,896,794,2683,2206,1872,1664,1725,1622,1725,2383,1918,1717,4230,1785,1112,4200,443,4202,1746,657,2539,3257,489,1005,3950,4120,1595,3955,2990,3980,872,1369,1989,1463,1560,2455,32,1734,2451,3992,2434,1811,1834,3417,2236,4263,2209,2321,1428,3297,1817,2125,2428,1316,1533,2210,2412,3324,3728,1346,3324,2489,1734,3369,961,32,1912,764,766,777,1249,1700,757,946,919,1199,730,843,1912,1374,4289,2843,3363,2607,970,1531,770,2379,2991,1897,32,3873,2239,1790,3873,2217,3354,2122,3350,2210,1277,2306,2333,1274,4322,2160,1904,963,4285,994,830,979,3823,1725,4328,1537,4162,3173,1622,1348,906,1101,2399,1682,885,2026,809,2220,777,1598,1189,4043,4344,2145,1491,1215,3596,1952,2228,1892,3609,3557,2689,2201,4086,1292,3747,1042,76,4001,532,1421,2679,1169,1492,1108,857,2495,2874,4377,1900,3967,1274,4260,2648,766,4258,4373,1221,1560,4248,3034,1048,3480,4064,369,1292,3736,3680,2187,1292,1897,1149,1874,3369,1477,2350,2715,956,3690,3354,3053,2353,3733,2161,2164,3764,2984,517,1975,658,3221,1582,3438,1695,4139,1619,4265,2350,4368,4066,4429,1421,1146,1672,1564,2799,872,4023,1225,885,3993,706,1207,889,4434,2642,1108,4075,1154,4264,4082,4450,1533,1479,893,1375,923,4444,1465,4441,1384,3544,3957,3292,825,1167,2825,1281,4362,4435,1042,2034,1146,2123,1155,2284,1887,1700,3775,2144,4300,3690,2062,1355,1113,983,2170,3889,843,2115,1870,3206,4213,888,3868,3567,1861,4413,3708,1222,1795,3524,2458,3640,3627,2444,1258,2206,4399,2093,2069,4125,1713,1146,2070,1146,2842,1708,1154,4514,4216,3293,4123,3171,1474,1839,926,821,1622,1851,1815,1708,1809,1259,909,1225,1641,3389,3518,1565,2505,3371,3776,1259,3547,1625,3575,2049,2238,2875,1713,3480,1549,728,1394,790,3587,1520,2472,3747,3497,3842,2204,4229,1050,3353,2262,4563,975,1525,1084,48,1549,1472,2441,1255,1341,2272,1630,1326,2971,2803,1686,2408,2803,2179,1263,3904,3622,881,4556,3640,2391,2261,1314,761,3573,3655,946,3499,913,804,2460,56,2671,2186,3740,917,3831,1228,3875,1527,1841,885,903,2095,1864,908,1463,2408,2179,2596,1626,1725,4021,1074,3091,923,1515,3820,2663,939,3533,818,4076,518,2109,55,962,532,4494,954,706,3611,2473,963,1271,3573,1750,963,3984,790,823,2065,3589,901,3370,3246,2164,4021,3880,4414,4021,897,2486,1326,692,1451,3868,1678,1802,3791,4605,4345,3699,1536,1289,1204,763,2408,4675,2329,2160,2688,1166,1121,2671,951,4153,3356,4664,1083,1897,4158,738,794,1199,936,902,3742,1756,4654,2635,1337,4643,4651,889,1724,4629,882,2611,4650,2710,853,4076,1488,4668,4640,2427,67,864,4092,1338,845,2525,963,1725,4695,4627,2014,4021,2203,948,4611,1566,1125,4667,1846,67,908,4735,1163,1811,1249,4609,4286,718,819,2611,3111,4603,1337,3740,4600,745,2199,2599,2707,3908,2160,737,3697,1669,2656,2668,1754,4153,1549,4585,1567,1313,1913,1083,896,1256,1063,1387,3103,876,860,4574,1566,1303,2289,2601,1563,3710,1759,1149,1700,4561,4697,833,1635,1516,745,4691,4555,1337,3354,1188,2796,3510,4548,2963,3292,1802,859,748,3324,2968,3622,4532,1399,4122,4535,829,2952,4817,845,4527,946,4293,512,4524,2229,1281,4521,841,4819,4530,750,4816,4832,1981,4346,2069,4680,853,4509,1804,1898,2086,1845,4227,2416,1063,2086,4463,1790,2826,2068,3838,1884,2453,2424,3574,1425,3345,4360,1554,1419,2882,4300,3488,2205,1716,2038,3900,1832,2863,3011,4668,3172,1708,2459,1053,2619,4817,4768,2916,3908,795,1469,3818,2316,3894,2038,2416,2362,1731,2326,2260,724,1149,1146,3213,4476,1419,3647,1641,2397,2704,1687,2605,4219,2235,3790,2284,1760,4905,1083,1281,4186,781,2276,4704,2180,1547,864,4295,4895,1109,4684,825,2836,1469,1217,4418,267,3267,1047,715,995,829,722,3574,2591,1664,1717,2588,738,965,4939,3911,2594,1055,1163,801,4824,2283,4288,3956,2501,995,1083,796,845,1245,801,2611,802,1534,1089,791,2630,795,1079,728,1831,801,766,4970,1167,1729,4974,2665,811,1369,1376,4973,4904,820,797,4344,2675,2636,2527,2679,2520,1568,893,791,4935,875,2646,1475,2648,1377,1720,2693,1987,2877,2658,795,1818,2700,801,2705,1521,3512,5010,877,2185,880,4315,2712,2688,1183,857,2674,825,847,953,856,1850,923,2682,4992,2633,2645,1912,3425,911,4766,1803,2651,1326,2695,2693,1831,2599,5041,3901,823,917,1120,2116,936,5047,2707,940,1853,2711,911,4301,2660,905,2716,2642,2877,2719,2679,1853,3523,963,4143,3498,2688,2731,881,1784,974,1850,1421,974,2157,807,926,4969,4856,3433,3078,397,4244,3224,989,301,2751,2769,995,831,1828,497,998,5084,1970,1584,654,2756,256,2758,2760,694,34,581,4210,3263,2651,2771,685,2562,690,2775,1043,2778,3197,713,735,76,705,48,5121,1184,966,1452,994,4686,1101,1179,774,903,915,4064,513,1960,772,1129,1120,2379,1068,3359,753,513,1079,3794,1020,962,1470,1117,744,4515,2164,1734,1331,994,1804,1316,1532,1161,4573,2501,3342,2901,917,5127,3329,810,2877,4431,5092,3550,4428,5172,925,1643,2135,1838,5093,1785,1065,2428,1237,2480,4324,1488,4687,1103,1202,4668,1204,1632,5153,2885,882,1551,1154,5148,2359,994,834,5141,4358,1199,1248,4510,837,2253,1279,1092,4032,4639,913,3027,4508,960,518,1388,1387,826,1076,1700,1717,2887,878,4285,4364,1420,2105,2896,2133,1248,906,1228,1019,1074,4785,1914,2160,4076,1070,841,2313,2915,4443,2250,3540,3360,1117,869,1861,5189,2161,1348,2135,2679,1348,3697,2157,5201,706,2408,1204,1912,728,1319,2642,1631,1814,2596,826,2654,4098,1125,915,928,858,4327,4089,1040,4369,2587,1301,2326,782,910,1040,950,815,961,2696,4098,2043,2958,5268,994,1713,5138,2678,4585,1082,81,1515,1217,1208,958,1412,4976,706,2116,1102,1904,2573,5281,5285,3354,924,987,669,125">
	<desc rule-id="0_0">
			Created with Pixso.
	</desc>
	<defs rule-id="0_1"/>
	<path id="path1" d="M0 24.02C0 20.27 -0.01 16.52 0 12.77C-0.01 10.96 0.22 9.15 0.66 7.39C1.65 3.67 4.07 1.46 7.79 0.6C9.65 0.2 11.56 0.01 13.46 0.04C20.65 0.04 27.84 0.04 35.04 0.04C36.85 0.03 38.66 0.24 40.43 0.66C44.26 1.6 46.56 4.02 47.43 7.84C47.83 9.65 48.01 11.49 47.99 13.33C47.99 20.6 47.99 27.87 47.99 35.14C48 36.94 47.8 38.73 47.38 40.48C46.44 44.31 44 46.6 40.19 47.48C38.32 47.88 36.42 48.07 34.51 48.04C27.35 48.04 20.19 48.04 13.03 48.04C11.2 48.05 9.38 47.85 7.6 47.43C3.75 46.49 1.44 44.05 0.57 40.22C0.12 38.27 0 36.31 0 34.34C0 30.9 0 27.46 0 24.02Z" fill="#FFFFFF" fill-opacity="0" fill-rule="evenodd" rule-id="0_2"/>
	<circle id="path2" cx="24.000000" cy="24.044922" r="24.000000" fill="#FFFFFF" fill-opacity="0" rule-id="0_3"/>
	<mask id="mask978_44038" mask-type="alpha" maskUnits="userSpaceOnUse" x="0.000000" y="0.000000" width="48.000000" height="47.998047" rule-id="0_4">
		<path id="减去顶层" d="M48 0L0 0L0 20C0.502441 18.9609 1.19421 18.0039 2.07544 17.1211C3.10046 16.0977 4.23181 15.3281 5.46924 14.8145C6.70667 14.3027 8.05029 14.0449 9.5 14.0449L23.5 14.0449C24.9497 14.0449 26.2933 14.3027 27.5308 14.8145C28.7682 15.3281 29.8995 16.0977 30.9246 17.1211C31.9497 18.1465 32.7186 19.2773 33.2312 20.5137C33.7437 21.752 34 23.0957 34 24.5449L34 38.5449C34 39.9961 33.7437 41.3398 33.2312 42.5762C32.7186 43.8145 31.9497 44.9453 30.9246 45.9688C30.0708 46.8242 29.1434 47.5 28.1425 47.998L48 47.998L48 0ZM4.8562 47.998C3.85571 47.5 2.92871 46.8242 2.07544 45.9707Q0.753662 44.6484 0 43.0918L0 47.998L4.8562 47.998Z" clip-rule="evenodd" fill="#C4C4C4" fill-opacity="1.000000" fill-rule="evenodd" rule-id="0_4_0"/>
	</mask>
	<g mask="url(#mask978_44038)" rule-id="0_5">
		<path id="path3" d="M40 3.54C43.31 3.54 46 6.23 46 9.54L46 23.54C46 26.85 43.31 29.54 40 29.54L26 29.54C22.68 29.54 20 26.85 20 23.54L20 9.54C20 6.23 22.68 3.54 26 3.54L40 3.54Z" stroke="#191919" stroke-opacity="1.000000" stroke-width="3.000000" stroke-linejoin="round" rule-id="0_5_0"/>
	</g>
	<g mask="url(#mask978_44038)" rule-id="0_6">
		<path id="path4" d="M39.17 24.54C39.17 24.54 37.1 19.21 32.97 8.54C28.87 19.21 26.82 24.54 26.82 24.54M29.28 19.62L36.66 19.62" stroke="#191919" stroke-opacity="1.000000" stroke-width="3.000000" stroke-linejoin="round" stroke-linecap="round" rule-id="0_6_0"/>
	</g>
	<path id="path5" d="M23.5 18.54C26.81 18.54 29.5 21.23 29.5 24.54L29.5 38.54C29.5 41.85 26.81 44.54 23.5 44.54L9.5 44.54C6.18 44.54 3.5 41.85 3.5 38.54L3.5 24.54C3.5 21.23 6.18 18.54 9.5 18.54L23.5 18.54Z" stroke="#191919" stroke-opacity="1.000000" stroke-width="3.000000" stroke-linejoin="round" rule-id="0_7"/>
	<path id="path" d="M8.52 26.82L24.52 26.82" stroke="#191919" stroke-opacity="1.000000" stroke-width="3.000000" stroke-linecap="round" rule-id="0_8"/>
	<path id="path" d="M21.31 27.22C21.31 27.22 19.79 32.31 16.65 35.47C13.5 38.63 8.47 39.66 8.47 39.66" stroke="#191919" stroke-opacity="1.000000" stroke-width="3.000000" stroke-linecap="round" rule-id="0_9"/>
	<path id="path" d="M11.47 27.22C11.47 27.22 12.99 32.31 16.13 35.47C19.28 38.63 24.31 39.66 24.31 39.66" stroke="#191919" stroke-opacity="1.000000" stroke-width="3.000000" stroke-linecap="round" rule-id="0_10"/>
	<path id="path" d="M15.98 23.42C15.98 23.42 16.33 24.23 16.55 25.01C16.78 25.78 16.87 26.52 16.87 26.52" stroke="#191919" stroke-opacity="1.000000" stroke-width="3.000000" stroke-linecap="round" rule-id="0_11"/>
	<path id="path7" d="M40 2.04L26 2.04C21.85 2.04 18.5 5.4 18.5 9.54L18.5 14.04L23.5 14.04C24.94 14.04 26.29 14.3 27.53 14.81C27.94 14.98 28.34 15.18 28.73 15.4L31.57 8C31.65 7.79 31.76 7.62 31.91 7.48C32.05 7.33 32.22 7.22 32.43 7.14C32.9 6.96 33.29 6.94 33.62 7.08C33.94 7.23 34.19 7.53 34.37 8L40.57 24C40.87 24.78 40.5 25.64 39.71 25.94C38.93 26.24 38.08 25.86 37.77 25.08L36.24 21.11L33.45 21.11C33.81 22.18 34 23.32 34 24.54L34 31.04L40 31.04C44.14 31.04 47.5 27.68 47.5 23.54L47.5 9.54C47.5 5.4 44.14 2.04 40 2.04ZM31.81 18.11L35.07 18.11L32.98 12.71L31.18 17.38C31.4 17.62 31.62 17.86 31.81 18.11Z" fill="#FFFFFF" fill-opacity="0" fill-rule="evenodd" rule-id="0_12"/>
	<path id="path8" d="M23.5 17.04L9.5 17.04C5.35 17.04 2 20.4 2 24.54L2 38.54C2 42.68 5.35 46.04 9.5 46.04L23.5 46.04C27.64 46.04 31 42.68 31 38.54L31 24.54C31 20.4 27.64 17.04 23.5 17.04ZM15.38 22.05C16.14 21.71 17.01 22.05 17.35 22.82C17.42 22.98 17.49 23.16 17.58 23.38C17.75 23.82 17.89 24.23 18 24.59C18.06 24.83 18.12 25.07 18.18 25.32L24.52 25.32C25.36 25.32 26.02 25.98 26.02 26.82C26.02 27.66 25.36 28.32 24.52 28.32L22.53 28.32C22.5 28.4 22.47 28.49 22.43 28.58C22.16 29.32 21.86 30.06 21.52 30.79C21.04 31.83 20.52 32.78 19.97 33.65C19.52 34.35 19.06 34.99 18.58 35.57C18.87 35.77 19.18 35.97 19.5 36.16C20.25 36.6 21.06 37 21.95 37.35C22.59 37.6 23.23 37.82 23.88 38C24.19 38.09 24.44 38.15 24.61 38.19C25.43 38.35 25.95 39.13 25.78 39.96C25.61 40.78 24.83 41.29 24.01 41.13C23.77 41.08 23.45 41 23.07 40.89C22.33 40.68 21.59 40.43 20.85 40.14C19.81 39.73 18.86 39.27 17.97 38.75C17.41 38.41 16.88 38.06 16.39 37.68C15.9 38.06 15.37 38.41 14.8 38.75C13.92 39.27 12.97 39.73 11.93 40.14C11.19 40.43 10.45 40.68 9.71 40.89C9.33 41 9.01 41.08 8.77 41.13C7.95 41.29 7.17 40.78 7 39.96C6.83 39.13 7.34 38.35 8.17 38.19C8.34 38.15 8.59 38.09 8.9 38C9.54 37.82 10.19 37.6 10.83 37.35C11.72 37 12.53 36.6 13.28 36.16C13.6 35.97 13.91 35.77 14.2 35.57C13.72 34.99 13.26 34.35 12.81 33.65C12.26 32.78 11.74 31.83 11.26 30.79C10.92 30.06 10.62 29.32 10.35 28.58C10.31 28.49 10.28 28.4 10.25 28.32L8.52 28.32C7.68 28.32 7.02 27.66 7.02 26.82C7.02 25.98 7.68 25.32 8.52 25.32L15.08 25.32C15.01 25.07 14.91 24.78 14.78 24.47C14.71 24.29 14.65 24.14 14.6 24.02C14.27 23.25 14.61 22.39 15.38 22.05ZM18.8 29.53C18.98 29.13 19.16 28.72 19.32 28.32L13.46 28.32C13.62 28.72 13.8 29.13 13.98 29.53C14.41 30.44 14.86 31.28 15.34 32.05C15.68 32.58 16.03 33.07 16.39 33.51C16.75 33.07 17.09 32.58 17.43 32.05C17.92 31.28 18.37 30.44 18.8 29.53Z" fill="#FFFFFF" fill-opacity="0" fill-rule="evenodd" rule-id="0_13"/>
</svg>