<svg xmlns="http://www.w3.org/2000/svg" xmlns:xlink="http://www.w3.org/1999/xlink" width="48.000000" height="48.000000" viewBox="0 0 48 48" fill="none" version="1.1" rule-id="0" rule-config="123,34,98,111,114,100,101,114,34,58,256,48,95,52,264,256,115,116,114,111,107,101,264,91,34,95,95,67,79,76,79,82,281,34,44,48,93,125,44,34,267,56,270,34,272,274,276,278,280,282,284,286,288,290,292,293,34,102,105,108,108,101,100,298,267,269,265,299,273,275,277,58,34,35,70,330,331,289,323,301,101,45,111,112,97,99,105,116,121,264,295,34,311,267,54,95,48,298,313,315,303,281,283,285,287,95,289,291,294,354,108,337,339,341,343,345,49,46,48,374,375,347,294,349,95,49,298,300,325,356,305,359,308,363,334,325,367,340,342,344,327,372,375,376,348,95,55,353,314,108,385,358,307,361,309,364,404,392,369,395,34,397,398,352,400,297,322,383,302,327,329,331,330,333,423,336,338,393,370,327,419,311,116,119,111,95,99,111,108,259,115,381,265,437,439,441,443,445,50,319,268,382,324,424,328,427,428,294,430,413,394,345,419,378,95,350,352,322,365,406,306,360,362,93,411,315,465,434,416,373,418,377,295,470,380,457,335,475,387,409,389,464,432,414,371,485,398,487,267,402,473,404,493,408,289,49,479,312,412,498,466,396,501,399,469,421,271,458,326,460,461,429,523,482,415,436,294,274,117,110,100,95,258,116,116,111,109,454,322,267,51,403,355,58,279,357,476,308,50,512,365,529,500,418,468,488,321,256,318,327,77,51,52,46,57,56,32,51,51,46,573,67,567,569,571,51,53,46,50,54,572,574,52,49,572,54,46,56,51,572,372,52,580,591,593,76,49,591,53,589,51,599,51,67,49,568,53,598,592,594,49,574,48,605,582,584,32,616,373,605,574,573,601,617,589,610,46,54,54,609,629,622,50,46,55,615,611,571,49,372,602,622,603,630,645,54,76,50,55,569,622,650,652,654,57,622,582,57,53,67,653,655,49,654,50,594,50,56,569,53,622,673,672,572,48,583,52,676,583,56,76,578,570,683,672,686,568,688,573,575,51,90,527,492,425,461,70,698,391,515,483,352,463,528,119,105,100,116,104,500,602,633,54,402,400,53,298,120,371,680,559,333,415,49,725,486,294,710,712,714,327,672,518,374,333,104,101,105,103,104,116,345,737,726,720,351,298,564,34,77,729,622,48,652,591,55,588,643,758,584,639,762,661,674,48,50,665,760,767,668,592,56,678,737,51,48,660,49,57,46,52,53,770,679,681,49,643,784,786,770,686,792,785,787,50,796,572,685,756,51,803,48,757,697,400,471,752,345,77,666,782,657,815,768,663,665,659,622,669,671,673,663,689,580,680,50,682,791,684,691,579,828,835,693,626,608,687,580,620,585,694,588,590,614,595,785,613,600,602,46,604,848,593,609,642,857,615,636,581,583,585,623,618,586,695,628,624,622,568,633,635,872,49,638,640,873,855,643,650,647,855,649,46,602,658,667,650,697,480,405,549,304,407,477,410,513,481,705,728,738,560,379,447,563,813,842,869,576,911,864,621,846,605,607,850,597,861,601,648,861,859,882,861,622,863,844,929,872,694,627,867,630,874,634,936,637,639,641,927,644,888,866,924,945,889,818,949,651,951,662,664,951,824,32,737,827,833,678,780,681,837,911,962,685,914,840,893,390,424,550,386,509,900,497,368,516,484,726,708,335,45,733,713,715,717,718,503,401,812,565,951,817,822,49,955,821,667,958,960,675,968,789,831,966,692,643,677,969,1010,683,783,890,57,816,946,1017,656,946,972,474,896,551,494,510,555,514,980,483,417,502,420,994,754,954,674,1001,782,1003,826,1005,1012,1007,832,1012,838,1011,834,967,673,1016,815,1019,950,998,997,667,955,972,430,345,426,427,703,276,557,435,1068,336,987,735,484,716,633,719,311,115,113,117,97,114,101,537,111,539,541,543,266,95,1091,901,895,975,898,388,1030,902,1032,904,749,469,562,34,753,566,1014,934,841,1110,931,917,928,51,596,852,51,923,886,925,631,612,928,940,915,866,863,840,871,868,631,875,940,878,942,881,1125,952,885,856,952,1021,1144,1039,820,957,583,825,674,828,1047,1009,836,968,1050,912,696,1072,1065,701,1072,1070,346,984,391,1074,989,717,719,469,721,322,723,396,730,502,294,728,1178,376,732,711,988,736,673,983,34,741,743,745,747,1188,486,750,472,909,565,756,729,759,766,791,757,1203,761,1205,999,769,771,765,1208,643,654,56,777,571,779,781,622,793,799,1047,1209,1223,795,805,1222,798,1228,580,806,802,601,807,729,809,469,811,322,1108,996,1020,1147,956,998,1043,1152,1006,964,1008,1157,1053,1052,1110,840,577,1113,865,869,847,606,849,1117,851,922,854,856,1264,858,1124,1119,932,868,1128,1275,625,870,1136,938,876,1133,879,943,1140,884,1269,887,1058,891,1023,333,556,903,558,1196,1240,490,1242,910,1257,695,1259,836,1277,1115,1271,594,1266,921,1309,1121,1270,607,926,1125,1309,1278,572,931,1127,1131,1281,632,939,636,1137,880,1273,1022,646,1289,1332,953,1059,1245,998,1000,1149,670,959,1044,1153,1252,1048,1256,1156,1049,970,695,1063,528,1296,517,1189,464,1169,517,1077,991,400,505,1199,1038,1337,1291,782,1340,1248,1150,1343,1250,1046,1346,1155,688,1254,1014,833,1055,659,1057,1336,1292,602,1024,507,1026,976,899,511,894,1165,1034,519,488,521,1107,813,1246,1041,823,1372,1004,1345,830,1347,690,1255,1410,1380,1054,57,1017,1384,1145,1060,1369,674,1353,699,525,1067,1167,1069,1355,1166,973,1073,1185,1075,650,1171,347,311,114,117,316,455,1106,1064,425,783,1445,57,1164,1428,1396,739,294,1108,52,638,777,32,52,48,67,1454,592,50,1457,626,589,1458,888,682,52,845,599,1463,1470,601,884,1470,67,1216,675,1470,32,582,646,52,1465,1482,946,1457,758,1483,585,56,67,1491,1457,632,571,1479,959,1335,959,686,680,55,1502,964,1505,729,888,57,577,1504,941,682,51,638,52,782,568,783,572,568,1508,1520,1415,1461,1456,631,1016,1527,1473,48,1422,1168,1432,345,617,1298,1398,491,384,1444,57,1446,1448,1102,1297,1179,1400,565,1507,757,1510,1512,639,1514,572,1517,1519,1510,1522,1556,1529,1526,1455,1463,1564,76,1531,881,48,52,1503,592,682,800,1552,1577,1513,1509,783,1534,1069,1359,34,1538,1035,1299,1198,1095,1162,526,1394,1428,707,1550,754,1578,1574,1508,680,783,1555,1508,1517,1558,785,1560,1521,578,1524,1510,1569,1566,881,1530,1615,1458,1460,1618,1486,1467,610,1457,1471,1462,1625,1475,1488,1477,1499,1481,1495,1485,575,589,1634,1490,1488,1493,1634,1497,32,1499,1567,884,1579,1556,50,1239,488,350,908,1430,1592,1425,1430,1165,1596,1453,1618,1459,1570,1635,1117,1489,1468,1625,857,1473,651,1141,1631,592,1480,585,1634,1486,1638,76,1495,1641,1630,1643,1645,1501,1648,1505,1688,1553,1603,1552,1137,1515,1559,1616,660,1611,1697,1614,1627,1568,1664,1533,1164,1585,1587,1397,504,547,895,1424,332,1594,1547,1071,1452,910,1513,1690,1581,1511,1693,1606,1516,1608,1697,1562,1612,1617,1702,1525,1701,1528,568,1572,1574,56,1576,1600,959,1651,545,1711,1656,1714,1095,1659,992,1174,256,1176,295,905,727,467,1755,1184,734,345,597,1758,1190,742,744,746,327,1762,1104,488,53,751,1301,565,807,764,673,55,374,1463,1777,639,1780,1553,50,1780,665,1778,1784,623,604,51,1505,1266,805,718,885,1786,788,1611,1790,591,1799,800,921,854,1804,1569,571,597,76,807,1811,1776,1743,1093,1745,700,1593,1748,1595,1436,125">
	<desc rule-id="0_0">
			Created with Pixso.
	</desc>
	<defs rule-id="0_1"/>
	<path id="path1" d="M0 23.98C0 20.23 -0.01 16.48 0 12.73C-0.01 10.91 0.22 9.1 0.66 7.35C1.65 3.63 4.07 1.42 7.79 0.56C9.65 0.16 11.56 -0.03 13.46 0C20.65 0 27.84 0 35.04 0C36.85 -0.01 38.66 0.19 40.43 0.62C44.26 1.55 46.56 3.98 47.43 7.8C47.83 9.6 48.01 11.44 47.99 13.29C47.99 20.56 47.99 27.83 47.99 35.09C48 36.89 47.8 38.69 47.38 40.44C46.44 44.27 44 46.55 40.19 47.43C38.32 47.83 36.42 48.02 34.51 47.99C27.35 47.99 20.19 47.99 13.03 47.99C11.2 48.01 9.38 47.8 7.6 47.38C3.75 46.45 1.44 44.01 0.57 40.17C0.12 38.22 0 36.27 0 34.3C0 30.86 0 27.42 0 23.98Z" fill="#FFFFFF" fill-opacity="0" fill-rule="evenodd" rule-id="0_2"/>
	<circle id="path2" cx="24.000000" cy="24.000000" r="24.000000" fill="#FFFFFF" fill-opacity="0" rule-id="0_3"/>
	<path id="path3" d="M42.82 40C42.82 43.31 40.14 46 36.82 46L11.16 46C7.85 46 5.16 43.31 5.16 40L5.16 8C5.16 4.68 7.85 2 11.16 2L30.7 2L30.7 10.19C30.7 12.4 32.49 14.19 34.7 14.19L42.82 14.19L42.82 40Z" stroke="#191919" stroke-opacity="1.000000" stroke-width="3.000000" stroke-linejoin="round" rule-id="0_4"/>
	<mask id="mask307_29678" mask-type="alpha" maskUnits="userSpaceOnUse" x="0.000000" y="0.000000" width="48.000000" height="48.000000" rule-id="0_5">
		<path id="蒙版" d="M0 0L28.7002 0L28.7002 10.2002C28.7002 13.5137 31.3867 16.2002 34.7002 16.2002L48 16.2002L48 48L0 48L0 0Z" clip-rule="evenodd" fill="#C4C4C4" fill-opacity="1.000000" fill-rule="evenodd" rule-id="0_5_0"/>
	</mask>
	<g mask="url(#mask307_29678)" rule-id="0_6">
		<path id="path" d="M30.7 2L30.7 10.19C30.7 12.4 32.49 14.19 34.7 14.19L42.82 14.19L42.82 40C42.82 43.31 40.14 46 36.82 46L11.16 46C7.85 46 5.16 43.31 5.16 40L5.16 8C5.16 4.68 7.85 2 11.16 2L30.7 2Z" fill="#FFFFFF" fill-opacity="0" fill-rule="evenodd" rule-id="0_6_0"/>
		<path id="path" d="M42.82 40C42.82 43.31 40.14 46 36.82 46L11.16 46C7.85 46 5.16 43.31 5.16 40L5.16 8C5.16 4.68 7.85 2 11.16 2L30.7 2L30.7 10.19C30.7 12.4 32.49 14.19 34.7 14.19L42.82 14.19L42.82 40Z" stroke="#FFFFFF" stroke-opacity="0" stroke-width="3.000000" stroke-linejoin="round" rule-id="0_6_1"/>
	</g>
	<path id="path5" d="M30.7 2L30.7 10.19C30.7 12.4 32.49 14.19 34.7 14.19L42.82 14.19L42.82 14.04L30.84 2L30.7 2Z" fill="#FFFFFF" fill-opacity="0" fill-rule="evenodd" rule-id="0_7"/>
	<path id="path5" d="M30.7 10.19C30.7 12.4 32.49 14.19 34.7 14.19L42.82 14.19L42.82 14.04L30.84 2L30.7 2L30.7 10.19Z" stroke="#191919" stroke-opacity="1.000000" stroke-width="3.000000" stroke-linejoin="round" rule-id="0_8"/>
</svg>