<svg xmlns="http://www.w3.org/2000/svg" xmlns:xlink="http://www.w3.org/1999/xlink" viewBox="0 0 48 48" width="48.000000" height="48.000000" fill="none" version="1.1" rule-id="0" rule-config="123,34,98,111,114,100,101,114,34,58,256,48,95,267,269,264,256,102,105,108,108,264,34,35,70,280,281,34,125,44,34,267,49,268,268,271,34,273,275,277,279,281,280,283,285,287,95,288,48,291,293,276,58,278,297,298,284,286,302,95,50,290,265,292,274,307,309,310,299,313,50,305,320,295,310,70,324,267,51,302,327,294,308,296,297,332,95,334,326,318,306,329,323,312,267,53,314,304,345,328,338,330,341,351,288,49,291,115,116,114,111,107,101,347,340,349,95,351,344,272,355,322,370,300,95,52,335,318,363,365,367,264,91,34,95,95,67,79,76,79,82,390,34,44,48,93,371,381,374,34,384,366,368,58,388,390,392,394,396,95,398,400,125,312,306,101,100,291,269,289,353,375,337,410,391,393,395,397,399,93,285,306,45,111,112,97,99,105,116,121,277,390,69,77,80,84,89,397,371,303,317,427,321,339,282,454,352,336,458,357,461,316,426,319,337,377,460,379,404,346,356,348,379,334,361,354,470,459,311,478,315,463,369,472,313,381,480,256,406,386,476,340,285,494,101,438,440,442,444,277,304,402,486,383,364,407,488,298,498,510,367,501,441,443,445,308,506,379,359,456,469,307,429,412,432,415,434,436,320,517,503,520,389,95,448,450,452,415,371,524,492,405,515,408,528,431,414,416,435,547,385,500,439,518,504,308,447,449,451,453,523,508,457,512,331,418,285,116,119,111,95,99,111,108,259,115,546,424,270,481,464,477,313,455,468,475,471,484,588,462,585,569,341,288,467,487,496,489,267,474,376,483,570,485,546,591,607,341,343,601,592,608,490,567,555,511,409,538,529,552,434,544,595,568,602,593,350,314,546,499,597,627,605,482,465,312,573,575,577,579,114,115,404,583,525,475,550,413,433,400,533,275,535,519,446,539,563,542,598,425,615,612,461,303,666,465,379,599,650,606,671,325,670,587,333,382,629,616,613,619,611,676,267,491,362,548,597,514,556,658,560,286,341,403,690,556,692,620,516,558,536,505,358,628,526,387,623,551,654,554,437,705,659,561,661,541,565,313,545,700,621,652,530,553,693,407,695,537,562,721,543,566,638,527,712,653,531,49,715,534,717,696,734,564,543,312,365,117,110,100,95,258,116,116,111,109,648,525,119,105,100,116,104,277,50,56,46,48,773,774,398,34,104,101,105,103,104,116,769,771,774,775,285,120,277,49,48,772,786,304,285,537,791,793,786,341,583,291,422,308,77,51,56,32,807,76,807,32,791,76,791,813,48,815,48,809,56,811,808,807,90,77,49,57,46,57,57,53,52,813,55,46,49,54,48,50,67,50,792,51,832,55,813,54,46,56,55,55,54,32,843,830,51,50,51,848,830,55,48,49,855,49,46,50,49,52,808,49,836,51,863,52,76,50,834,869,46,51,838,49,878,849,55,56,53,865,873,882,876,842,836,48,54,852,861,57,863,865,50,836,839,52,860,838,850,852,854,770,793,52,854,892,838,840,842,771,52,48,52,57,835,46,52,52,770,855,921,901,834,892,901,57,860,913,869,871,813,771,875,57,54,878,53,46,54,56,851,866,830,53,56,877,904,46,53,953,832,956,895,830,925,881,962,880,943,55,960,50,50,882,907,969,893,972,974,56,51,51,52,920,978,855,51,882,859,880,836,831,987,46,863,956,855,836,972,988,996,957,52,910,1000,995,48,956,878,1004,851,972,948,52,955,957,999,855,1014,1016,964,993,50,1020,997,913,875,1013,850,976,931,986,50,849,982,983,985,1028,855,849,56,990,998,965,1044,843,1026,1018,958,1047,1003,1005,1046,1008,1052,1012,809,792,49,1024,842,1011,971,1058,949,49,972,1004,924,809,903,834,883,842,988,890,1071,994,1060,960,51,792,54,1067,1079,1024,1065,1080,878,988,1080,1054,1009,856,972,836,1051,842,792,864,1093,934,829,54,1087,1034,850,1043,828,949,1106,1035,982,984,1110,1105,1029,956,983,855,1100,903,1025,880,792,1029,1015,1094,1091,1106,1124,1090,837,1106,1001,1055,878,1126,994,1002,1099,772,903,1136,997,1116,1135,989,1120,1147,979,850,1114,67,1151,855,974,983,1120,856,1101,967,1016,1121,959,961,1016,878,1158,49,49,938,867,968,815,829,888,1077,49,970,945,1155,829,53,840,916,992,55,937,813,1184,832,891,836,928,930,1110,831,833,926,918,50,90,776,651,740,728,532,526,732,660,540,749,664,584,682,667,672,709,764,766,768,308,913,794,795,777,779,781,783,1224,785,794,776,789,308,829,831,831,845,776,797,1100,1234,656,586,378,594,600,318,1221,767,784,799,787,1228,780,782,1254,1226,1235,790,1244,800,796,1263,1255,773,1205,675,679,685,1271,1248,680,610,1274,603,342,1273,428,1207,625,50,744,657,746,733,720,1214,507,468,1252,1223,34,1225,1245,1257,1230,1260,1298,1236,34,1238,1239,1241,1266,308,798,1261,507,546,804,34,806,1041,1036,1167,1009,51,1317,982,1071,882,981,56,67,1321,1153,1323,982,868,54,53,925,51,948,1082,1171,809,1004,1189,873,809,988,52,1171,865,983,995,57,873,815,1004,955,951,1341,1351,873,1155,974,54,57,1357,1350,1343,847,1171,837,54,1371,1345,1333,1335,813,867,838,1372,883,1325,810,1369,1378,916,849,1084,54,51,1155,1377,1371,916,1342,983,891,1362,1364,872,988,1051,813,1355,951,1399,868,1137,1332,1347,1340,1172,1406,963,1337,882,864,891,1400,1055,809,1322,908,1394,1347,1420,1330,908,1386,838,51,811,1421,942,927,1016,776,635,630,331,730,516,1294,790,995,53,1436,548,1211,521,698,619,1314,77,856,924,1023,980,1036,878,1195,1239,1157,1426,1453,792,1455,925,892,1012,1133,1239,966,1457,982,1459,927,1461,1468,971,1464,1476,1023,1113,1474,958,1466,1040,882,1036,1453,988,1471,1086,53,1470,1461,1082,1134,1445,1440,408,683,1500,45,1442,1309,1444,1446,694,1288,707,627,1293,765,1253,1232,1268,1227,778,1258,1231,1296,1233,1265,34,1303,1310,1298,1243,1517,708,669,318,1452,1408,1348,1358,1367,1354,959,951,1336,1342,1352,55,1361,949,1364,1542,1359,1368,1391,898,1373,1034,1375,1383,1371,847,1380,807,1382,1552,1368,1428,1388,1390,1370,1553,870,995,1395,813,1397,56,1467,1418,1146,1403,1575,813,1577,877,1535,1410,1582,1328,1338,864,50,1581,1412,1073,1322,934,1423,1349,1594,861,1387,1430,1329,981,1120,1560,1326,1328,1598,1332,1555,1336,1588,1060,1537,1544,1373,1409,1349,1543,873,1204,1246,711,411,713,531,655,1210,1510,719,1213,663,627,360,803,277,827,1579,1549,1367,1546,1363,1580,1366,1615,1557,1553,1609,1334,1467,1563,1324,1561,822,1646,1564,1066,1566,1655,1402,1571,1424,1060,1547,1580,1411,1401,1570,1356,1576,1592,811,1346,1536,1666,1055,1587,1415,1613,1675,997,1602,1114,1660,55,1572,1682,1150,1565,1601,1608,867,1653,1607,1330,1073,1400,1649,809,1612,1590,1644,1344,1584,1618,1550,1539,1669,1614,1620,1508,726,1283,714,1503,1629,538,1631,433,703,500,1505,34,867,971,708,404,1452,881,940,872,874,894,856,937,859,900,902,1165,845,53,1656,851,853,1191,965,1200,917,839,841,1110,1335,1179,1195,929,1368,1184,1186,926,936,908,1177,889,1590,1180,893,945,1169,882,1171,1173,954,981,1138,1166,1163,981,1142,1162,1174,955,1761,1111,1152,1159,1782,1117,1462,1603,1389,1156,859,1149,938,1122,1140,1008,1794,1775,1145,1430,1792,1092,1792,996,1801,1130,1127,1781,1774,1808,1777,1161,1123,1434,981,1745,1787,1024,1030,1323,1791,1483,1790,1104,1112,1108,1323,1813,1093,1798,1096,1412,1806,1498,1830,1133,1092,1497,1080,1075,1835,1497,1084,1006,1077,883,855,1073,49,1062,1476,1078,879,1053,1843,1085,1854,1057,1839,1024,1010,1053,1050,1797,1475,1832,1047,1389,958,1023,1097,1797,1032,1039,1107,1042,1828,970,972,1823,1038,1064,1819,1119,938,992,966,1025,1886,1775,1889,1862,1057,1819,1128,1801,1063,1006,1805,1866,1796,1812,1887,1902,938,1879,994,858,1878,1033,1473,1869,1907,973,975,1828,1904,1776,1890,972,1780,1773,1819,950,952,1919,878,771,940,1467,1181,54,985,924,55,934,1188,1190,913,922,1070,892,1196,847,1297,915,1201,1749,964,906,1427,910,1744,958,897,899,909,901,1162,887,1763,926,875,923,1010,953,883,946,1729,870,1731,893,1965,1970,941,892,1964,52,1621,710,622,1624,741,398,743,1246,1448,1717,662,453,312,115,113,117,97,114,101,756,111,758,760,762,1513,1222,1301,1524,1519,1300,1516,1261,788,1267,2011,34,1529,1311,379,802,1533,1636,812,810,812,814,816,2025,820,2023,824,56,826,1198,832,1937,1370,919,856,1740,1742,911,1165,1735,1952,1959,903,867,1730,1963,876,1966,881,1968,885,1107,1178,1194,1973,984,1955,898,1656,2045,1044,1951,861,1743,912,1233,1947,1748,2037,921,923,1467,1754,930,1940,933,1759,1189,1906,868,1971,1433,944,1969,948,1925,1945,1922,1017,1775,2091,1022,966,2091,1874,1883,1158,1031,1027,2099,1695,1882,1006,1909,991,1045,1804,1419,958,1899,1137,1858,1883,1145,1056,1883,1132,2112,1019,1815,2059,1918,1124,2098,1118,2101,1914,1483,2059,2130,1827,2108,1871,1592,1044,1867,2114,1898,1102,1893,1064,1860,53,1851,1859,1083,1857,1069,1336,1072,1071,1841,1846,1144,1842,2149,1006,1838,1059,1861,1802,1106,1872,1094,1139,1864,963,1829,2169,1103,1783,1487,1877,2173,1818,2131,1183,2174,1884,2101,1795,1895,1164,1095,2122,1128,957,1807,2188,1168,2164,2113,2167,1799,1007,2170,2184,2117,1817,1148,2107,2202,1152,1603,1115,1825,1784,2183,1143,1319,1125,2093,1772,957,1170,1172,2213,1176,995,889,891,1932,2180,1185,1034,2080,1190,1751,1193,926,1196,872,1305,1747,836,1202,1980,1206,1983,1208,1285,1987,1716,748,1632,1219,1216,1981,683,668,763,1514,1295,1297,2007,1229,1259,2010,1302,277,1305,1240,57,1242,2013,1298,686,1272,673,2004,1515,1522,1530,285,2008,2260,2275,2014,1526,1264,1256,2016,2269,1278,631,1281,1247,1279,479,601,727,625,1627,716,502,718,1989,735,684,738,636,379,381,2273,2256,1523,1256,2278,1521,2257,1256,1303,2264,937,2266,1308,1723,2283,1269,1312,1635,805,1687,1771,1175,2326,1652,1606,2329,1648,1375,1414,1339,1705,1367,1616,1536,1702,55,1707,1404,1709,1545,1663,1642,824,1619,1551,1568,854,2333,1650,2352,2330,1562,2356,909,1600,1567,1384,1684,1572,2347,1398,1591,1667,1579,1405,1051,1672,927,1674,1586,2335,1416,2368,1419,2329,1570,1685,1424,2381,1689,1431,1426,1433,2189,1711,495,1502,1720,1504,2255,1443,1725,1715,2298,696,522,618,1727,1636,1454,1461,1915,1789,1475,1486,2408,1489,2406,993,1478,1494,1792,1492,2412,1484,1460,2415,836,1012,1480,2411,1823,2410,2407,1823,1490,965,1023,1807,1495,993,2145,2391,1501,612,1503,1722,1724,1499,2394,1716,2402,632,2307,2006,2310,2259,2312,2309,1269,2012,1309,2321,1227,2285,800,1633,525,1534,1673,1340,2341,2343,1643,2350,1641,1548,2345,1376,1568,1559,1697,1556,1651,1605,2358,1378,1656,2361,1659,2382,2365,1574,1670,2369,1540,1665,1582,2373,1617,2379,1413,1700,2497,1593,1695,2364,2384,1598,2360,1429,2387,2207,2357,1327,1687,1696,1374,1611,1678,1701,2350,2339,2467,2350,2240,355,2294,433,2244,1628,2400,1289,1718,736,723,633,2324,1315,1668,1541,2345,2472,2470,1550,2475,2483,1554,1698,1659,2481,1654,1651,2506,1658,2549,1596,1573,1664,2490,1419,2536,2493,1671,1704,2500,1677,1339,1764,1582,1425,2509,2487,2504,2502,2550,1690,2502,2547,1694,2509,2354,1699,2516,2474,2561,2468,2558,1639,1544,1980,1437,2524,531,2526,499,1988,2247,1719,2592,2443,1507,637,2534,1453,2047,2084,1977,1733,792,2043,1737,1162,844,846,2066,2041,2033,2237,2036,1750,1192,1753,927,1755,1745,2227,1187,862,2230,1762,53,1764,1932,1768,883,2219,1927,2187,1919,1778,2046,1772,1786,1106,2100,1821,2209,1788,1036,2180,1818,988,1909,1798,1162,1800,1165,2195,1834,1803,1800,1837,1131,1815,1801,2168,1889,2637,2192,1816,1791,948,1885,2205,1487,1036,1824,2181,1041,859,2651,903,2166,1831,1836,2194,2682,2191,2145,1841,2161,1066,1845,1349,2153,1074,1854,1070,1847,2115,1081,2159,1848,1855,2162,2417,2141,2169,1801,1049,2680,2095,1830,2127,2175,2677,2711,1107,2673,2105,2122,2670,1870,1888,2661,2138,2666,1897,1863,1892,2697,1905,1901,2110,1903,2109,2653,2102,2106,2713,2735,2645,982,2717,1915,1785,1044,1023,1922,1920,1319,1801,2088,951,2090,2639,1928,2083,1942,2225,2078,1936,2229,2082,1941,2075,2620,904,1032,773,2070,2238,1949,958,2065,909,2067,1044,1956,2062,1738,2055,1962,2604,1974,880,1692,838,878,2602,1976,1732,1974,2787,1972,1978,2522,1282,2242,625,1986,2527,559,2529,1990,750,285,114,117,108,408,266,425,674,482,102,2813,2814,1270,1287,2528,707,285,1452,941,871,76,941,818,820,2826,32,2823,2822,2031,827,2238,1337,2554,904,915,1155,2424,869,1764,1724,57,840,1433,1936,891,1174,871,2235,868,1024,934,1362,1337,1966,1110,845,57,2754,852,1015,2554,1388,2146,50,829,1024,1665,2849,1365,1059,888,872,2843,2845,1497,56,1334,2836,1936,1933,1380,53,890,908,974,971,2152,1007,1364,1591,898,1365,2047,2853,1660,1321,890,886,850,57,1070,1095,811,820,1095,1328,792,1026,1139,2884,953,838,1324,979,1328,867,2206,1073,2910,880,1076,1058,994,2417,948,1845,947,1775,849,1494,1082,1487,2146,2878,880,2932,2916,1044,2915,2913,770,2918,1775,771,1681,2922,855,1184,2925,2867,959,2930,972,1184,2955,1358,2866,2928,2579,1160,1011,1593,1848,1420,2687,2353,912,974,1081,1338,880,2971,2959,1768,2956,2954,1180,2950,959,2839,1370,2981,960,909,972,2947,934,2939,2944,2987,2941,2624,2915,1107,2986,808,2997,2977,2935,3001,1792,1494,2980,3004,2983,2996,2924,2993,2408,2990,1775,1750,2991,1391,1948,2654,942,2654,2786,837,48,1077,2905,909,2862,2986,1004,2899,1850,909,2867,1101,1411,2894,872,849,928,952,1663,2889,1201,2835,1663,2837,54,1204,461,2250,611,2814,2815,2253,590,606,3053,2813,776,1722,871,2276,1299,2279,3062,2281,277,45,2283,1084,2267,521,1530,466,2811,458,3058,102,3060,2396,308,3066,1298,2311,277,3083,1524,1303,2459,3072,286,3074,473,666,3078,684,1277,2812,3058,2816,108,1988,2448,1280,2303,338,3096,2245,2818,1449,2463,3056,3099,3053,3101,3103,776,2821,1059,1318,929,2954,2424,1392,847,3122,2146,1004,1105,1372,3127,855,809,829,951,928,3133,1329,1334,1189,878,2475,983,869,842,32,771,1171,53,854,3129,1034,854,2961,3124,1558,32,2928,2824,3120,1323,2928,67,907,893,1120,2961,1947,3148,1067,3151,916,1692,929,885,1947,3139,1741,57,3164,2353,3135,956,834,3165,875,1120,3132,922,837,3121,2971,3049,566,1634,509,701,3107,3100,2399,2800,2819,34,1452,3156,1553,3127,3164,1111,3131,2975,1701,3183,3137,1701,1386,3179,3142,1369,3144,1850,1590,3170,3150,2829,3210,3154,1166,3206,847,3159,3190,1172,3162,2982,3186,2383,3158,1166,3169,837,3171,2829,3173,975,869,2824,2969,949,3179,3181,3134,850,3184,2829,2649,3238,3189,3161,860,3127,76,3230,2829,3193,2439,2395,2005,308,51,1726,3095,3200,2799,706,1449,2820,1636,1110,973,1747,2855,2146,1765,2847,2475,2903,1357,1468,2841,2475,1189,2845,917,3045,974,3047,1155,3039,871,1368,2888,1556,849,3034,1417,949,2874,861,3028,2898,1334,2054,1377,3024,903,1126,815,2999,1126,3008,912,1139,3011,3017,3011,3015,3014,1030,3018,3004,3020,3004,3003,1076,3003,2932,3319,2935,3322,2935,861,1832,2915,3011,1327,3346,3330,1748,2985,3333,2957,1915,2978,2417,2975,1350,2866,3357,2973,1079,2969,2966,1321,2147,2965,1819,2972,975,2122,1081,1355,2958,2953,2933,2907,1184,2909,3330,3375,2940,913,1681,2919,931,2945,3344,2353,2949,2997,2952,3338,3368,3002,3394,3334,2934,3007,2937,2926,3382,980,1849,3014,3387,2914,3389,3380,2912,2907,3318,1876,2903,966,3318,1380,3281,1595,882,3313,2945,863,2892,3036,3309,2884,2886,2554,3043,2878,2880,3046,2882,3379,873,3289,2876,1590,2953,2869,2355,3288,2999,771,3311,2347,2856,879,1745,2859,2221,3418,2864,2856,3280,2897,3447,53,3194,618,634,691,338,828,3465,2318,2446,3110,2300,1214,3278,805,1015,2433,3415,2954,3474,1492,3178,1189,3164,948,3479,3214,3185,3257,1323,3259,3191,3488,2971,3263,850,1392,865,3208,3152,1334,3261,2975,1174,1239,1073,3485,813,3475,2501,3140,2860,3502,831,934,3174,3145,3511,2903,3147,3242,3225,3498,53,860,3155,3494,1371,865,3232,3260,3239,3128,3487,3523,3240,3483,1461,3224,3151,3535,2415,3514,3176,3539,1467,1355,3267,1722,3271,507,404,1437,278,3466,828,3267,2246,1290,663,3472,2535,1887,1456,878,2316,1157,2833,3475,1591,2417,1491,2407,50,3563,3567,1411,53,3566,2419,822,2953,3578,2432,2419,3492,2418,1496,3545,2442,3081,34,3548,2018,291,3061,2455,1518,2453,3086,3595,1262,3073,2014,537,3090,1292,3593,3589,3087,2452,1520,3598,3063,1303,3069,1255,3071,2319,3604,566,2450,3082,3599,2277,3597,3621,3612,505,3063,3603,3074,418">
	<mask id="mask_844" width="48.000000" height="48.000000" x="0.000000" y="0.000000" maskUnits="userSpaceOnUse" rule-id="0_0">
		<g filter="url(#pixso_custom_mask_type_alpha)" rule-id="0_0_0">
			<path id="减去顶层" d="M48 48L48 0L0 0L0 48L48 48ZM17.135 12.2746C17.8212 11.7902 18.741 11.9488 19.2254 12.635L24 19.399L28.7745 12.635C29.2589 11.9488 30.1788 11.7902 30.865 12.2746C31.5513 12.759 31.7098 13.6788 31.2254 14.3651L26.8949 20.5L30 20.5C30.84 20.5 31.5 21.16 31.5 22C31.5 22.84 30.84 23.5 30 23.5L25.5 23.5L25.5 26.5L30 26.5C30.84 26.5 31.5 27.16 31.5 28C31.5 28.84 30.84 29.5 30 29.5L25.5 29.5L25.5 34.5C25.5 35.34 24.84 36 24 36C23.16 36 22.5 35.34 22.5 34.5L22.5 29.5L18 29.5C17.16 29.5 16.5 28.84 16.5 28C16.5 27.16 17.16 26.5 18 26.5L22.5 26.5L22.5 23.5L18 23.5C17.16 23.5 16.5 22.84 16.5 22C16.5 21.16 17.16 20.5 18 20.5L21.1051 20.5L16.7745 14.3651C16.2901 13.6788 16.4487 12.759 17.135 12.2746Z" fill="#ffffff" fill-opacity="0" fill-rule="evenodd" rule-id="0_0_0_0"/>
		</g>
	</mask>
	<defs rule-id="0_1">
		<clipPath id="clipPath_1642" rule-id="0_1_0">
			<rect width="48.000000" height="48.000000" x="0.000000" y="0.000000" fill="#ffffff" rule-id="0_1_0_0"/>
		</clipPath>
		<clipPath id="clipPath_1643" rule-id="0_1_1">
			<rect width="48.000000" height="48.000000" x="-0.000061" y="0.000000" fill="#ffffff" rule-id="0_1_1_0"/>
		</clipPath>
		<clipPath id="clipPath_1644" rule-id="0_1_2">
			<rect width="48.000000" height="48.000000" x="0.000000" y="0.000000" fill="#ffffff" rule-id="0_1_2_0"/>
		</clipPath>
		<filter id="pixso_custom_mask_type_alpha" rule-id="0_1_3">
			<feColorMatrix type="matrix" values="0 0 0 0 1 0 0 0 0 1 0 0 0 0 1 0 0 0 1 0 " rule-id="0_1_3_0"/>
		</filter>
	</defs>
	<rect id="ic_public_invoice-发票/base/ic_public_invoice" width="48.000000" height="48.000000" x="0.000000" y="0.000000" fill="#ffffff" fill-opacity="0" rule-id="0_2"/>
	<g id="support" clip-path="url(#clipPath_1642)" rule-id="0_3">
		<rect id="support" width="48.000000" height="48.000000" x="0.000000" y="0.000000" rule-id="0_3_0"/>
		<path id="path1" d="M-1.11219e-05 23.98C-1.11219e-05 20.23 -0.0100111 16.48 -1.11219e-05 12.73C-0.0100111 10.91 0.219989 9.10002 0.659989 7.35002C1.64999 3.63002 4.06999 1.42002 7.78999 0.56002C9.64999 0.16002 11.56 -0.0299803 13.46 1.967e-05C20.65 1.967e-05 27.84 1.967e-05 35.04 1.967e-05C36.85 -0.00998033 38.66 0.19002 40.43 0.62002C44.26 1.55002 46.56 3.98002 47.43 7.80002C47.83 9.60002 48.01 11.44 47.99 13.29C47.99 20.56 47.99 27.83 47.99 35.09C48 36.89 47.8 38.69 47.38 40.44C46.44 44.27 44 46.55 40.19 47.43C38.32 47.83 36.42 48.02 34.51 47.99C27.35 47.99 20.19 47.99 13.03 47.99C11.2 48.01 9.37999 47.8 7.59999 47.38C3.74999 46.45 1.43999 44.01 0.569989 40.17C0.119989 38.22 -1.11219e-05 36.27 -1.11219e-05 34.3C-1.11219e-05 30.86 -1.11219e-05 27.42 -1.11219e-05 23.98Z" fill="#ffffff" fill-opacity="0" fill-rule="evenodd" rule-id="0_3_1"/>
		<circle id="path2" cx="24" cy="24" r="24" fill="#ffffff" fill-opacity="0" rule-id="0_3_2"/>
	</g>
	<g id="border" clip-path="url(#clipPath_1643)" rule-id="0_4">
		<rect id="border" width="48.000000" height="48.000000" x="-0.000061" y="0.000000" rule-id="0_4_0"/>
		<path id="path4" d="M45.9999 20.5L45.9999 36.6579C45.9999 39.8844 43.3733 42.5 40.1333 42.5L7.86661 42.5C4.62653 42.5 1.99994 39.8844 1.99994 36.6579L1.99994 11.3421C1.99994 8.1156 4.62653 5.5 7.86661 5.5L40.1333 5.5C43.3733 5.5 45.9999 8.1156 45.9999 11.3421L45.9999 14.5" fill-rule="evenodd" stroke="#191919" stroke-linecap="round" stroke-linejoin="round" stroke-width="3" rule-id="0_4_1"/>
		<path id="path6" d="M17.9999 22L29.9999 22M17.9999 13.5L23.9999 22L29.9999 13.5M17.9999 28L29.9999 28M23.9999 22.5L23.9999 34.5" stroke="#191919" stroke-linecap="round" stroke-linejoin="round" stroke-width="3" rule-id="0_4_2"/>
	</g>
	<g id="filled" clip-path="url(#clipPath_1644)" rule-id="0_5">
		<rect id="filled" width="48.000000" height="48.000000" x="0.000000" y="0.000000" rule-id="0_5_0"/>
		<g id="蒙版" mask="url(#mask_844)" rule-id="0_5_1">
			<path id="path5" d="M40.1333 42.5L7.86667 42.5C4.6266 42.5 2 39.8844 2 36.6579L2 11.3421C2 8.1156 4.6266 5.5 7.86667 5.5L40.1333 5.5C43.3734 5.5 46 8.1156 46 11.3421L46 36.6579C46 39.8844 43.3734 42.5 40.1333 42.5Z" fill="#ffffff" fill-opacity="0" fill-rule="nonzero" rule-id="0_5_1_0"/>
			<path id="path5" d="M7.86667 42.5C4.6266 42.5 2 39.8844 2 36.6579L2 11.3421C2 8.1156 4.6266 5.5 7.86667 5.5L40.1333 5.5C43.3734 5.5 46 8.1156 46 11.3421L46 36.6579C46 39.8844 43.3734 42.5 40.1333 42.5L7.86667 42.5Z" fill-rule="nonzero" stroke="#ffffff" stroke-opacity="0" stroke-linecap="round" stroke-linejoin="round" stroke-width="3" rule-id="0_5_1_1"/>
		</g>
		<path id="path6(边框)" d="M19.2254 12.635C18.741 11.9488 17.8212 11.7902 17.135 12.2746C16.4487 12.759 16.2901 13.6788 16.7745 14.3651L21.1051 20.5L18 20.5C17.16 20.5 16.5 21.16 16.5 22C16.5 22.84 17.16 23.5 18 23.5L22.5 23.5L22.5 26.5L18 26.5C17.16 26.5 16.5 27.16 16.5 28C16.5 28.84 17.16 29.5 18 29.5L22.5 29.5L22.5 34.5C22.5 35.34 23.16 36 24 36C24.84 36 25.5 35.34 25.5 34.5L25.5 29.5L30 29.5C30.84 29.5 31.5 28.84 31.5 28C31.5 27.16 30.84 26.5 30 26.5L25.5 26.5L25.5 23.5L30 23.5C30.84 23.5 31.5 22.84 31.5 22C31.5 21.16 30.84 20.5 30 20.5L26.8949 20.5L31.2254 14.3651C31.7098 13.6788 31.5513 12.759 30.865 12.2746C30.1788 11.7902 29.2589 11.9488 28.7745 12.635L24 19.399L19.2254 12.635L19.2254 12.635Z" fill="#ffffff" fill-opacity="0" fill-rule="evenodd" rule-id="0_5_2"/>
	</g>
</svg>