<svg xmlns="http://www.w3.org/2000/svg" xmlns:xlink="http://www.w3.org/1999/xlink" width="48.000000" height="48.000000" viewBox="0 0 48 48" fill="none" version="1.1" rule-id="0" rule-config="123,34,98,111,114,100,101,114,34,58,256,48,95,50,264,256,102,105,108,108,264,34,35,70,279,280,34,125,44,34,267,51,95,267,48,270,34,272,274,276,278,280,279,282,284,286,288,95,49,291,293,275,58,277,297,298,283,285,95,287,287,290,265,292,273,307,309,310,299,313,287,52,288,305,320,295,310,70,324,301,53,329,294,308,296,297,334,314,303,291,115,116,114,111,107,101,264,91,34,95,95,67,79,76,79,82,355,34,44,48,93,312,301,269,318,346,348,350,352,354,356,358,360,362,364,366,312,306,101,100,291,267,369,271,330,339,332,342,316,328,318,306,331,323,367,343,267,304,396,390,322,341,400,287,403,256,371,349,351,391,323,284,412,350,45,111,112,97,99,105,116,121,276,290,408,268,345,347,413,398,341,417,433,419,421,423,425,427,308,429,300,343,316,337,307,353,355,357,359,361,95,363,365,284,306,420,422,424,426,276,49,46,48,468,469,393,95,327,317,389,338,451,376,454,379,458,319,274,461,441,464,308,466,469,470,430,336,404,338,406,281,125,312,116,119,111,95,99,111,108,259,115,410,313,388,482,321,340,496,446,394,474,511,435,514,325,302,508,397,415,407,515,431,370,438,414,477,453,378,456,380,430,448,493,512,392,430,473,449,519,311,527,492,475,540,399,498,500,502,504,506,510,387,544,525,520,301,289,559,495,546,521,402,564,513,566,301,508,418,414,565,333,437,372,101,484,463,443,285,471,510,574,545,577,34,574,581,442,428,471,538,549,374,452,377,455,457,93,459,320,592,486,34,488,489,445,521,543,539,598,478,534,602,604,483,440,582,465,467,610,471,548,518,58,532,600,379,49,603,511,606,583,609,489,282,312,348,117,110,100,95,258,116,116,111,109,557,528,597,560,571,401,395,654,576,471,568,614,629,375,533,601,44,50,634,460,621,593,487,624,639,430,508,114,120,465,50,46,56,51,51,50,55,56,363,34,114,637,682,684,50,56,55,304,578,434,655,589,591,672,607,290,700,419,119,105,100,116,104,623,55,52,57,718,269,430,510,385,308,77,50,48,46,53,32,49,56,46,55,53,76,726,728,32,50,57,46,50,53,725,55,738,731,733,735,687,738,740,742,336,708,575,570,703,530,636,594,756,45,710,712,714,674,716,718,57,720,527,51,291,680,308,741,770,53,49,269,284,637,727,468,49,52,54,755,34,765,713,276,696,675,470,284,104,101,105,103,104,116,794,732,610,611,301,596,34,723,34,77,51,746,779,730,785,48,49,735,778,718,780,818,624,821,76,823,57,825,51,806,820,735,815,46,817,833,827,836,816,824,826,786,53,90,725,466,815,53,729,753,50,717,750,850,734,729,748,769,53,67,50,858,852,730,732,743,57,51,739,727,718,48,55,730,746,697,52,853,727,53,468,860,879,716,863,737,820,876,878,683,888,730,741,54,743,860,869,53,871,896,46,898,867,861,856,76,49,897,899,739,741,855,831,67,911,905,913,753,55,51,903,890,49,892,51,727,781,881,873,728,885,32,929,46,931,889,874,57,928,930,855,853,866,853,741,923,925,947,914,742,856,848,751,884,48,886,894,881,864,843,892,49,887,932,795,851,900,754,925,732,970,868,733,909,969,859,953,916,889,974,980,922,924,872,751,875,877,937,939,739,746,958,729,992,945,963,467,927,991,944,968,54,920,867,986,925,1006,906,948,954,831,736,1011,913,908,917,50,1017,907,901,925,746,891,877,966,961,853,995,935,1029,880,847,690,524,630,479,535,481,671,462,673,608,796,468,471,613,256,679,465,51,838,770,924,690,692,1053,1055,57,717,55,1037,390,1039,617,380,619,108,761,674,807,626,291,812,849,46,815,976,734,736,858,981,889,1084,922,52,933,718,936,944,933,997,944,864,48,1092,938,50,904,898,953,716,1102,1101,854,735,919,1103,861,863,1110,1101,748,743,873,893,697,1094,1119,55,1097,1055,1122,739,1084,1116,946,1079,1028,732,734,956,984,1081,983,1131,976,1117,989,57,1126,957,1122,963,1144,1017,1140,853,1149,1112,1016,920,1085,864,1149,1088,994,1099,781,994,738,998,1000,1091,998,739,1136,1159,979,1085,736,1136,1112,90,1065,476,665,631,535,633,1070,1072,1046,1074,497,417,113,117,97,114,101,646,111,648,650,652,510,524,660,430,563,663,1067,667,1042,605,705,637,1047,808,657,523,405,758,471,678,776,608,694,685,687,689,284,1059,487,1222,696,698,690,587,702,1232,760,1210,762,590,760,792,767,1046,769,719,585,1076,276,725,883,1137,736,1250,1108,745,747,1133,750,995,1085,1235,579,588,1261,413,1185,707,1239,579,764,711,793,768,717,1245,537,775,276,830,780,782,34,784,827,788,790,1241,805,1212,690,799,801,803,1288,1187,773,658,811,1248,837,817,927,841,829,1061,825,1302,846,1304,779,49,936,834,828,1300,844,840,1308,1315,831,845,835,956,952,854,978,952,1019,1086,1131,1023,972,988,941,965,967,882,934,959,1122,962,926,1335,1030,1106,1331,870,872,1114,1331,862,910,912,1008,915,856,918,1353,1013,950,1333,1001,943,1100,968,883,935,998,1341,1334,1003,1364,1130,975,1009,988,1324,1355,831,956,1032,1339,1034,888,1166,942,1028,1336,1169,1330,971,1347,1389,975,1328,1174,1390,981,1356,979,1354,733,987,1163,990,1161,945,1163,996,1406,1341,1026,1002,1410,1151,1007,1359,1403,1021,1416,1398,1015,1419,1012,1081,1399,1022,1391,902,988,1412,1343,1035,1408,1033,1336,1177,1070,615,666,379,669,1184,1237,1073,625,542,1297,1052,487,1054,770,871,57,1058,637,1451,718,1063,1178,450,1180,1040,363,1442,635,1444,1186,1446,547,1247,724,865,1139,1153,1473,1080,1108,864,1087,949,1089,737,1167,1093,737,1095,1100,1097,1406,1106,1104,1089,1114,1173,1494,1112,1357,1155,1129,1118,1383,1121,1383,1124,1091,1502,1476,1132,754,1127,1474,1257,1135,1512,749,864,1175,901,1404,1143,1507,1259,1504,687,1148,1499,1519,1423,1115,1257,1154,1103,1478,1529,1492,1160,1168,1145,1165,1142,1490,1172,1171,1170,915,750,1518,749,1437,628,1206,632,670,1209,1044,607,638,490,641,117,108,414,266,653,628,277,102,1568,1569,661,1297,1201,35,1569,1570,1443,1556,583,1213,394,1215,494,1574,1575,102,1460,1266,595,1572,1216,1585,1586,1577,485,1579,1289,284,1077,52,56,32,819,48,57,55,789,898,76,1098,1603,1605,1607,50,1609,32,1600,827,76,1600,1616,1313,1619,1601,1611,1606,53,898,848,919,997,51,1352,747,1113,741,860,52,938,54,48,1530,683,924,1601,49,1054,900,730,1647,918,746,49,1640,1115,1647,730,1006,1637,1639,1641,1657,1634,910,1658,936,51,918,1665,685,1643,57,1645,1652,1654,936,1638,1648,51,1677,918,732,684,1672,1676,747,1636,1666,1671,1645,1687,685,848,929,1649,728,67,937,1683,1645,1656,51,466,1659,1653,1661,1702,1663,1707,1631,1697,1703,1688,1699,1099,1714,1679,1164,1098,1717,889,741,1705,1101,1720,1389,1631,1689,1726,1666,1396,860,1138,1704,1675,753,1723,1695,1095,1738,1177,1447,517,1573,1592,1587,1467,1267,1449,34,855,1597,691,583,50,1457,771,52,774,491,569,1745,1594,622,444,690,1077,1630,730,1109,1691,1667,1768,1670,684,976,1775,1725,731,1685,1113,1674,1780,1662,1727,1775,1653,1164,1632,1787,1732,1668,747,1638,1653,893,1795,1646,1256,1738,1681,1643,1738,904,1734,1804,1769,1693,1712,821,1711,1793,1639,1715,1348,1701,1098,1798,1721,1813,1818,1729,787,1813,795,1732,1731,1666,1517,1788,1802,1736,54,1783,1694,1720,1697,727,1777,1677,936,1712,1774,872,1709,1730,1845,821,1741,527,573,530,295,911,1854,1454,763,1467,1558,1048,1226,1220,50,682,1074,1226,1754,466,1056,48,52,1264,709,1271,1242,1054,1295,521,586,1852,339,1855,911,1872,580,1858,1752,1767,1645,1109,1601,685,814,1817,836,1719,774,763,1287,308,1876,1469,521,774,318,1220,1603,797,1282,428,675,1605,1064,284,1899,34,1617,1865,34,1291,802,804,308,1917,1446,497">
	<desc rule-id="0_0">
			Created with Pixso.
	</desc>
	<defs rule-id="0_1">
		<clipPath id="clip431_3628" rule-id="0_1_0">
			<rect id="support" width="48.000000" height="48.000000" fill="white" fill-opacity="0" rule-id="0_1_0_0"/>
		</clipPath>
		<clipPath id="clip431_3627" rule-id="0_1_1">
			<rect id="ic_public_pause-暂停/base/ic_public_pause" width="48.000000" height="48.000000" fill="white" fill-opacity="0" rule-id="0_1_1_0"/>
		</clipPath>
	</defs>
	<rect id="ic_public_pause-暂停/base/ic_public_pause" width="48.000000" height="48.000000" fill="#ffffff" fill-opacity="0" rule-id="0_2"/>
	<g clip-path="url(#clip431_3627)" rule-id="0_3">
		<g clip-path="url(#clip431_3628)" rule-id="0_3_0">
			<path id="path1" d="M0 23.98C0 20.23 -0.01 16.48 0 12.73C-0.01 10.91 0.22 9.1 0.66 7.35C1.64 3.63 4.06 1.41 7.79 0.56C9.64 0.16 11.56 -0.03 13.46 0C20.64 0 27.83 0 35.04 0C36.85 -0.01 38.66 0.18 40.43 0.62C44.26 1.55 46.56 3.97 47.43 7.8C47.83 9.6 48.01 11.43 47.99 13.29C47.99 20.56 47.99 27.83 47.99 35.09C48 36.89 47.8 38.68 47.37 40.43C46.43 44.27 44 46.55 40.18 47.43C38.31 47.83 36.41 48.02 34.51 47.99C27.35 47.99 20.18 47.99 13.03 47.99C11.2 48.01 9.37 47.8 7.6 47.38C3.75 46.45 1.43 44.01 0.56 40.16C0.12 38.22 0 36.27 0 34.3C0 30.86 0 27.41 0 23.98Z" fill="#ffffff" fill-opacity="0" fill-rule="evenodd" rule-id="0_3_0_0"/>
			<circle id="path2" cx="24.000000" cy="24.000000" r="24.000000" fill="#ffffff" fill-opacity="0" rule-id="0_3_0_1"/>
		</g>
		<ellipse id="path3" cx="24.000000" cy="24.000000" rx="22.000000" ry="21.999304" stroke="#191919" stroke-opacity="1.000000" stroke-width="3.000000" rule-id="0_3_1"/>
		<path id="path4" d="M18 15L18 33M30 15L30 33" stroke="#191919" stroke-opacity="1.000000" stroke-width="3.000000" stroke-linejoin="round" stroke-linecap="round" rule-id="0_3_2"/>
		<mask id="mask431_3637" mask-type="alpha" maskUnits="userSpaceOnUse" x="0.000000" y="0.000977" width="48.000000" height="48.000000" rule-id="0_3_3">
			<path id="减去顶层" d="M48 0.000976562L0 0.000976562L0 48.001L48 48.001L48 0.000976562ZM19.5 33L19.5 15C19.5 14.1602 18.8398 13.5 18 13.5C17.1602 13.5 16.5 14.1602 16.5 15L16.5 33C16.5 33.8398 17.1602 34.5 18 34.5C18.8398 34.5 19.5 33.8398 19.5 33ZM30 13.5C30.8398 13.5 31.5 14.1602 31.5 15L31.5 33C31.5 33.8398 30.8398 34.5 30 34.5C29.1602 34.5 28.5 33.8398 28.5 33L28.5 15C28.5 14.1602 29.1602 13.5 30 13.5Z" clip-rule="evenodd" fill="#ffffff" fill-opacity="0.000000" fill-rule="evenodd" rule-id="0_3_3_0"/>
		</mask>
		<g mask="url(#mask431_3637)" rule-id="0_3_4">
			<ellipse id="path4" cx="24.000000" cy="24.000488" rx="24.000000" ry="23.999243" fill="#ffffff" fill-opacity="0" rule-id="0_3_4_0"/>
		</g>
		<path id="path4 (边框)" d="M19.5 15L19.5 33C19.5 33.83 18.83 34.5 18 34.5C17.16 34.5 16.5 33.83 16.5 33L16.5 15C16.5 14.16 17.16 13.5 18 13.5C18.83 13.5 19.5 14.16 19.5 15ZM31.5 15C31.5 14.16 30.83 13.5 30 13.5C29.16 13.5 28.5 14.16 28.5 15L28.5 33C28.5 33.83 29.16 34.5 30 34.5C30.83 34.5 31.5 33.83 31.5 33L31.5 15Z" fill="#ffffff" fill-opacity="0" fill-rule="evenodd" rule-id="0_3_5"/>
	</g>
</svg>